<?xml version="1.0" encoding="UTF-8"?>
<!DOCTYPE svg PUBLIC "-//W3C//DTD SVG 1.1//EN" "http://www.w3.org/Graphics/SVG/1.1/DTD/svg11.dtd">
<!-- Creator: CorelDRAW 2020 (64 Bit) -->
<svg xmlns="http://www.w3.org/2000/svg" xml:space="preserve" width="213.032mm" height="90.0089mm" version="1.1" style="shape-rendering:geometricPrecision; text-rendering:geometricPrecision; image-rendering:optimizeQuality; fill-rule:evenodd; clip-rule:evenodd"
viewBox="0 0 3839.55 1622.26"
 xmlns:xlink="http://www.w3.org/1999/xlink"
 xmlns:xodm="http://www.corel.com/coreldraw/odm/2003">
 <defs>
  <style type="text/css">
   <![CDATA[
    .str0 {stroke:#373435;stroke-width:13.52;stroke-miterlimit:22.9256}
    .fil1 {fill:none}
    .fil0 {fill:#373435}
    .fil2 {fill:url(#id0)}
   ]]>
  </style>
  <linearGradient id="id0" gradientUnits="userSpaceOnUse" x1="27.78" y1="1289.71" x2="1343.84" y2="1284.27">
   <stop offset="0" style="stop-opacity:1; stop-color:#378184"/>
   <stop offset="1" style="stop-opacity:1; stop-color:#80AF4F"/>
  </linearGradient>
 </defs>
 <g id="Camada_x0020_1">
  <metadata id="CorelCorpID_0Corel-Layer"/>
  <path class="fil0" d="M2649.16 917.28c-0.14,-229.42 -247.05,-254.97 -486.81,-173.23 0,40.64 0,81.27 0,121.91 82.14,-15.08 157.73,-14.2 235.71,-7.68 79.81,3.64 68.43,26.36 69.56,103.92 -199.31,-11.17 -345.09,48.75 -354.08,207.67 -8.81,155.81 168.08,279.28 366.27,136.47l0.45 44.6 168.91 0c0,-144.55 0,-289.1 0,-433.65zm-286.34 170.84l74.14 0c11.31,0 20.55,9.25 20.55,20.55l0 93.49c0,11.31 -9.25,20.55 -20.55,20.55l-74.14 0c-33.91,0 -61.66,-27.75 -61.66,-61.66l0 -11.27c0,-33.91 27.75,-61.66 61.66,-61.66z"/>
  <rect class="fil1 str0" x="163.8" y="6.76" width="1452.01" height="1462.89" rx="54.07" ry="54.07"/>
  <path class="fil0" d="M3291.2 479.94l156.29 0c10.67,0 19.4,8.73 19.4,19.4l0 436.25 152.09 -226.14c7.95,-11.83 24.13,-21.5 35.95,-21.5l173.19 0c11.82,0 14.99,9.67 7.04,21.5l-184.59 274.47c-7.95,11.83 -24.13,21.5 -35.96,21.5l5.97 0c11.83,0 27.15,9.67 34.06,21.5l181.05 309.8c6.92,11.83 2.89,21.5 -8.93,21.5l-173.19 0c-11.82,0 -27.15,-9.67 -34.06,-21.5l-152.62 -261.15 0 263.25c0,10.67 -8.73,19.4 -19.4,19.4l-156.29 0c-10.67,0 -19.4,-8.73 -19.4,-19.4l0 -839.47c0,-10.67 8.73,-19.4 19.4,-19.4z"/>
  <path class="fil0" d="M2984.85 681.17l198.76 0c11.51,0 20.92,9.41 20.92,20.92l0 157.22c-0.32,-0.02 -0.65,-0.04 -0.97,-0.04l-11.04 0 -170.06 0 -3.55 0c-45.22,0 -82.22,37 -82.22,82.22l0 3.55 0 157.49 0 3.55c0,45.22 37,82.22 82.22,82.22l3.55 0 170.06 0 11.04 0c0.32,0 0.65,-0.01 0.97,-0.04l0 151.78c0,11.51 -9.41,20.92 -20.92,20.92l-198.76 0c-135.66,0 -246.65,-110.99 -246.65,-246.65l0 -186.49c0,-135.66 110.99,-246.65 246.65,-246.65z"/>
  <path class="fil0" d="M1670.44 696.13l97.73 0 0 -77.27c0,-10.46 8.14,-20.86 18.09,-23.11l143.29 -32.45c9.95,-2.25 18.09,4.46 18.09,14.92l0 117.91 93.65 0c11.31,0 20.56,9.25 20.56,20.55l0 111.16c0,11.3 -9.25,20.55 -20.56,20.55l-93.65 0 0 363.15c11.79,23.29 71.77,13.83 108.77,14.81l0 122.36c-111.03,45.32 -271.01,17.22 -288.23,-96.53l0 -403.79 -97.73 0c-11.3,0 -20.55,-9.25 -20.55,-20.55l0 -111.16c0,-11.3 9.25,-20.55 20.55,-20.55z"/>
  <path class="fil0" d="M652.7 456.22l151.95 0c11.3,0 20.55,9.25 20.55,20.55l0 711.93c0,95.55 -73.86,174.66 -167.3,183.1 -1.76,0.49 -3.61,0.76 -5.52,0.76l-11.04 0 -0 0 -181.7 0c-11.3,0 -20.55,-9.25 -20.55,-20.55l0 -122.04c0,-11.31 9.25,-20.55 20.55,-20.55l172.51 0 0 -732.64c0,-11.3 9.25,-20.55 20.55,-20.55z"/>
  <path class="fil2" d="M1335.09 1585.55l0 -0.01c0,-20.19 -16.52,-36.7 -36.71,-36.7l-1105.33 1.05c-53.91,-20.69 -97.35,-62.94 -119.64,-116.05l0 -1162.99c0,-20.19 -16.52,-36.71 -36.7,-36.71l-0.01 0c-20.19,0 -36.7,16.52 -36.7,36.71l0 1080.85 0 58.14 0 43.82c0,8.4 38.06,155.89 193.05,166.59l1105.33 2c20.19,0 36.71,-16.52 36.71,-36.7z"/>
  <path class="fil0" d="M911.46 653.92c21.78,-212.99 212.21,-224.52 549.9,-173.29 16.71,2.53 12.94,0.78 13.25,18.67 0.66,38.52 1.33,77.04 1.99,115.55 0.5,29.45 5.8,26.13 -23,23.56 -111.38,-9.91 -332.68,-37.56 -344.99,41.33 -20.7,132.66 391.59,139.06 384.75,417.39 -5.83,237.15 -268.73,310.31 -533.71,234.71 -24.73,-7.05 -20.92,-2.39 -20.67,-27.33 0.39,-37.06 -0.18,-72.15 -0.33,-108.09 -0.1,-25.22 -3.13,-21.17 23.5,-17.95 124.26,15.02 327.13,63.3 335.19,-53.14 12.62,-182.18 -419.96,-138.15 -385.88,-471.42z"/>
 </g>
</svg>
