<?xml version="1.0" encoding="UTF-8"?>
<!DOCTYPE svg PUBLIC "-//W3C//DTD SVG 1.1//EN" "http://www.w3.org/Graphics/SVG/1.1/DTD/svg11.dtd">
<!-- Creator: CorelDRAW 2020 (64 Bit) -->
<svg xmlns="http://www.w3.org/2000/svg" xml:space="preserve" width="126.415mm" height="140.305mm" version="1.1" style="shape-rendering:geometricPrecision; text-rendering:geometricPrecision; image-rendering:optimizeQuality; fill-rule:evenodd; clip-rule:evenodd"
viewBox="0 0 1628.87 1807.84"
 xmlns:xlink="http://www.w3.org/1999/xlink"
 xmlns:xodm="http://www.corel.com/coreldraw/odm/2003">
 <defs>
  <style type="text/css">
   <![CDATA[
    .fil0 {fill:#1793B7}
    .fil1 {fill:#1793B7}
    .fil2 {fill:#6F6F6F}
   ]]>
  </style>
 </defs>
 <g id="Camada_x0020_1">
  <metadata id="CorelCorpID_0Corel-Layer"/>
  <path class="fil0" d="M1394.65 1011.26c-20.13,134.96 -140.77,249.69 -301.09,227.04 -132.48,-18.72 -248.97,-143.25 -224.85,-302.64 19.96,-131.91 142.89,-245.08 301.1,-223.31 131.25,18.06 248.18,142.42 224.84,298.91zm-1256.54 308.79c81.02,1.34 161.16,-1.87 241.74,-3.26 80.74,-1.39 164.18,-2.1 245.46,-6.03 161.94,-7.83 328.47,-5.59 491.07,-9.63 341,-8.49 440.39,-367.44 250,-558.21 -81.19,-81.35 -232.75,-132.87 -369.15,-64.31 -76.51,38.46 -220.63,154.35 -291.45,208.53l-426.4 323.57c-27.32,20.79 -126.11,92.22 -141.28,109.33z"/>
  <path class="fil1" d="M739.08 241.28c125.29,-19.56 223.73,69.82 241.62,174.13 21.68,126.37 -69.82,224.68 -171.38,243.02 -126.66,22.87 -228.12,-67.5 -246.3,-171.55 -22.37,-128.02 69.43,-228.96 176.06,-245.6zm-450.44 892.42c23.25,-10.86 538.93,-402.09 604.34,-450.21 37.87,-27.86 81.87,-62.35 106.09,-107.58 128.08,-239.19 -130.25,-482.56 -354.59,-354.55 -100.28,57.22 -116.38,140.9 -156.22,266.59l-148.88 482.34c-15.08,50.4 -40.26,114.43 -50.74,163.42z"/>
  <path class="fil2" d="M1103.3 759.66c-112.38,16.69 -205.23,116.46 -188.12,248.53 14.46,111.62 119.63,206.87 250.69,188.54 110.34,-15.44 206.85,-120.88 186.64,-253.43 -16.66,-109.26 -120.25,-202.79 -249.21,-183.64z"/>
  <path class="fil1" d="M259 46.77c223.9,-46.44 293.95,288.17 71.3,337.5 -222.41,49.28 -296.08,-290.88 -71.3,-337.5zm29.94 851.17c13.83,-23.76 32.2,-89.67 42.99,-120.99 14.57,-42.3 27.92,-79.52 41.95,-121.84l82.49 -249.14c24.1,-84.21 69.82,-166.91 37.92,-263.63 -24.68,-74.83 -94.37,-136.97 -191.61,-142.03 -102.05,-5.32 -172.71,60.66 -202.72,126.6 -41.66,91.55 2.65,190.02 28.55,271.52l155.09 490.97c5,10.34 2.86,5.43 5.34,8.55z"/>
  <path class="fil2" d="M949.17 474.88c31.64,-229.32 -311.93,-277.66 -348.5,-51.7 -16.8,103.76 59.65,188.73 147.57,201.58 105.53,15.42 188.59,-60.4 200.93,-149.88z"/>
  <path class="fil1" d="M1081.58 1483.97l-65.34 0c-17.93,4.85 -88.93,186.35 -105.37,213.26 -7.7,12.61 -3.73,6.27 -9.23,11.47l-9.24 -224.36c-96.11,-0.52 -62.72,-18.88 -129.61,114.61 -15.03,30.01 -41.73,90.13 -58.85,112.88l-4.73 -227.85 -75.43 0.01 12.6 321.48 80.62 -0.29 116.56 -221.71 11.92 221.99 81.43 0.23 154.68 -321.71z"/>
  <path class="fil2" d="M268.13 74.07c-70,15.53 -131.51,80.61 -112.32,170.32 39.26,183.53 324.1,127.69 280.8,-62.85 -15.02,-66.1 -83.24,-126.38 -168.49,-107.46z"/>
  <path class="fil1" d="M101.46 1664.57l115 1.57c1.47,17.56 -1.44,25.23 -4.67,40.95 -9.63,46.98 -11.03,34.83 -125.07,34.56l14.74 -77.09zm-101.46 140.19c33.06,2.7 210.88,3.86 233.84,-2.63 34.07,-9.63 39.11,-40.01 46.87,-76.44 16.76,-78.76 17.25,-60.38 -7.07,-89.38 31.73,-12.73 29.69,-34.46 38.37,-74.88 21.49,-100.12 -17.25,-82.48 -245.53,-77.18l-9.96 62.07 181.55 2.47c3.8,20.09 -4.77,51.69 -11.36,68.79l-114.32 -1.03 10.11 -50.94 -73.16 1.34 -49.34 237.79z"/>
  <path class="fil1" d="M1477.37 1464.65c-87.49,0 -63.98,-12.87 -84.66,82.22 -11.54,53.06 -51.73,227.59 -53.21,258.76 47.43,0 218.76,10.6 242.9,-14.59 16.65,-17.38 51.72,-179.68 45.8,-210.46 -16.7,-20.01 -32.71,-16.13 -66.49,-15.96 -27.85,0.15 -55.72,0.04 -83.41,0.07l-9.81 57.7 89.08 3.12 -26.01 119.57 -113.16 0.05 58.96 -280.49z"/>
  <path class="fil1" d="M1311.45 1705.62c7.07,-20.09 17.77,-72.34 21.46,-95.91 8.53,-54.43 -23.51,-45.25 -66.67,-45.08 -110,0.46 -168.83,-17.89 -184.25,48.42 -7.39,31.75 -46.06,169.17 -21.98,186.13 14.79,10.42 191.93,8.64 222.94,5.45l8.32 -54.74c-37.44,0 -139.61,4.76 -169.32,-3.12 1.64,-23.08 20.09,-108.47 28.13,-125.99l114.51 0.22 -8.58 43.66c-94.71,0 -98.95,-13.34 -103.41,40.97l158.85 0z"/>
  <path class="fil1" d="M357.37 1546.53l149.76 0c-7.06,18.31 -115.16,166.26 -135.4,193 -12.96,17.12 -36.92,47.56 -45.02,65.81 88.03,0.44 63.68,14.23 124.49,-72.68l108.01 -155.64c22.62,-31.71 31.49,-43.35 40.01,-93.04l-223.9 0c-13.57,3.52 -17.75,48.95 -17.94,62.56z"/>
 </g>
</svg>
