<?xml version="1.0" encoding="UTF-8"?>
<!DOCTYPE svg PUBLIC "-//W3C//DTD SVG 1.1//EN" "http://www.w3.org/Graphics/SVG/1.1/DTD/svg11.dtd">
<!-- Creator: CorelDRAW 2020 (64 Bit) -->
<svg xmlns="http://www.w3.org/2000/svg" xml:space="preserve" width="400mm" height="250mm" version="1.1" style="shape-rendering:geometricPrecision; text-rendering:geometricPrecision; image-rendering:optimizeQuality; fill-rule:evenodd; clip-rule:evenodd"
viewBox="0 0 9452.86 5908.04"
 xmlns:xlink="http://www.w3.org/1999/xlink"
 xmlns:xodm="http://www.corel.com/coreldraw/odm/2003">
 <defs>
  <style type="text/css">
   <![CDATA[
    .fil0 {fill:none}
    .fil3 {fill:#2D2C30;fill-rule:nonzero}
    .fil1 {fill:#999591;fill-rule:nonzero}
    .fil2 {fill:#FF9000;fill-rule:nonzero}
   ]]>
  </style>
 </defs>
 <g id="Camada_x0020_1">
  <metadata id="CorelCorpID_0Corel-Layer"/>
  <path class="fil0" d="M-0 0l9439.31 0c7.45,0 13.55,6.09 13.55,13.55l0 5880.94c0,7.45 -6.09,13.55 -13.55,13.55l-9439.31 0 0 -5908.04z"/>
  <g id="_2362470737744">
   <polygon class="fil1" points="3493.86,4140.82 3493.86,4122.97 3567.65,4122.97 3567.65,4140.82 3544.66,4144.76 3544.66,4215.49 3644.27,4215.49 3644.27,4144.76 3621.27,4140.82 3621.27,4122.97 3695.06,4122.97 3695.06,4140.82 3672.06,4144.76 3672.06,4306.03 3695.06,4309.98 3695.06,4327.69 3621.27,4327.69 3621.27,4309.98 3644.27,4306.03 3644.27,4237.29 3544.66,4237.29 3544.66,4306.03 3567.65,4309.98 3567.65,4327.69 3493.86,4327.69 3493.86,4309.98 3516.86,4306.03 3516.86,4144.76 "/>
   <path class="fil1" d="M3818.09 4327.69c-0.85,-4.11 -1.5,-7.83 -1.97,-11.1 -0.47,-3.28 -0.8,-6.58 -0.99,-9.84 -5.37,6.84 -12.09,12.55 -20.17,17.13 -8,4.5 -16.56,6.76 -25.68,6.76 -15.9,0 -27.98,-3.84 -36.26,-11.53 -8.28,-7.79 -12.42,-18.7 -12.42,-32.78 0,-14.42 5.83,-25.53 17.49,-33.32 11.76,-7.86 27.84,-11.81 48.25,-11.81l28.65 0 0 -17.71c0,-8.9 -2.83,-15.94 -8.47,-21.08 -5.65,-5.26 -13.5,-7.89 -23.57,-7.89 -6.96,0 -13.12,0.91 -18.48,2.67 -5.27,1.79 -9.55,4.23 -12.84,7.31l-2.96 16.03 -21.45 0 0 -29.53c6.96,-5.53 15.38,-9.93 25.25,-13.22 9.88,-3.36 20.6,-5.05 32.17,-5.05 17.31,0 31.33,4.4 42.05,13.21 10.72,8.81 16.08,21.41 16.08,37.83l0 73.25c0,1.97 0,3.91 0,5.78 0.09,1.86 0.23,3.74 0.42,5.63l11.29 1.54 0 17.71 -36.41 0zm-44.72 -20.24c9.22,0 17.63,-2.2 25.25,-6.62 7.62,-4.4 13.08,-9.7 16.37,-15.88l0 -25.03 -29.63 0c-11.38,0 -20.41,2.61 -27.09,7.87 -6.58,5.24 -9.88,11.63 -9.88,19.13 0,6.66 2.07,11.75 6.21,15.32 4.13,3.46 10.39,5.2 18.76,5.2z"/>
   <path class="fil1" d="M3877.63 4309.98l23 -3.95 0 -108.69 -23 -3.93 0 -17.88 50.8 0 0 130.49 23 3.95 0 17.71 -73.8 0 0 -17.71zm50.8 -173.37l-27.79 0 0 -28.28 27.79 0 0 28.28z"/>
   <path class="fil1" d="M3972.73 4193.42l0 -17.88 47.83 0 2.68 22.09c4.33,-7.79 9.65,-13.87 15.94,-18.29 6.4,-4.4 13.69,-6.59 21.87,-6.59 2.17,0 4.37,0.18 6.63,0.55 2.35,0.29 4.14,0.61 5.37,0.99l-3.67 25.73 -15.8 -0.85c-7.34,0 -13.5,1.75 -18.48,5.2 -4.99,3.39 -8.84,8.16 -11.56,14.34l0 87.33 22.99 3.95 0 17.71 -73.79 0 0 -17.71 22.99 -3.95 0 -108.69 -22.99 -3.93z"/>
   <path class="fil1" d="M4158.12 4308.99c9.22,0 17.31,-2.81 24.27,-8.44 7.05,-5.71 10.58,-12.7 10.58,-20.94l24.97 0 0.29 0.84c0.47,13.13 -5.41,24.8 -17.63,35.02 -12.14,10.13 -26.3,15.18 -42.47,15.18 -22.19,0 -39.18,-7.21 -50.93,-21.66 -11.66,-14.44 -17.5,-32.57 -17.5,-54.41l0 -5.92c0,-21.66 5.88,-39.7 17.64,-54.14 11.76,-14.52 28.69,-21.77 50.79,-21.77 12.23,0 23.19,2.01 32.87,6.04 9.79,4.03 17.88,9.56 24.27,16.59l1.27 33.76 -22.16 0 -6.07 -23.92c-3.29,-3.18 -7.52,-5.75 -12.7,-7.73 -5.17,-1.97 -11.01,-2.96 -17.5,-2.96 -14.58,0 -25.02,5.27 -31.32,15.77 -6.21,10.39 -9.31,23.2 -9.31,38.38l0 5.92c0,15.55 3.1,28.54 9.31,38.94 6.21,10.31 16.64,15.47 31.32,15.47z"/>
   <path class="fil1" d="M4354.52 4305.2c-4.8,8.16 -11.01,14.44 -18.63,18.84 -7.52,4.42 -16.22,6.62 -26.1,6.62 -16.55,0 -29.49,-5.3 -38.8,-15.88 -9.31,-10.61 -13.97,-27.1 -13.97,-49.5l0 -67.93 -17.5 -3.93 0 -17.88 45.29 0 0 90c0,16.23 2.4,27.39 7.2,33.47 4.79,6.1 12.28,9.15 22.43,9.15 9.88,0 18.01,-1.97 24.41,-5.9 6.48,-4.05 11.38,-9.72 14.67,-17.03l0 -87.88 -20.46 -3.93 0 -17.88 48.25 0 0 130.49 17.5 3.95 0 17.71 -42.46 0 -1.83 -22.5z"/>
   <path class="fil1" d="M4469.35 4138.85l0 36.69 28.94 0 0 20.55 -28.94 0 0 92.38c0,7.13 1.46,12.14 4.38,15.04 3.02,2.91 6.96,4.36 11.86,4.36 2.44,0 5.17,-0.19 8.18,-0.56 3.1,-0.47 5.69,-0.95 7.77,-1.41l3.8 18.98c-2.63,1.71 -6.47,3.07 -11.56,4.09 -5.08,1.12 -10.15,1.68 -15.23,1.68 -11.3,0 -20.28,-3.37 -26.95,-10.13 -6.68,-6.84 -10.01,-17.52 -10.01,-32.05l0 -92.38 -24.14 0 0 -20.55 24.14 0 0 -36.69 27.78 0z"/>
   <path class="fil1" d="M4643.47 4223.35l-20.87 0 -4.52 -18.27c-3.39,-3.21 -7.66,-5.73 -12.84,-7.6 -5.07,-1.97 -10.86,-2.96 -17.34,-2.96 -9.88,0 -17.22,2.16 -22.02,6.48 -4.79,4.31 -7.19,9.51 -7.19,15.61 0,6 2.11,10.73 6.35,14.2 4.23,3.47 12.84,6.56 25.83,9.29 19.27,4.11 33.62,9.74 43.03,16.87 9.41,7.03 14.11,16.49 14.11,28.39 0,13.5 -5.51,24.43 -16.52,32.78 -10.91,8.34 -25.21,12.51 -42.88,12.51 -11.56,0 -21.96,-1.31 -31.19,-3.94 -9.21,-2.71 -17.45,-6.59 -24.68,-11.67l-0.14 -34.72 20.87 0 5.22 20.38c3.21,2.92 7.52,5.02 12.98,6.33 5.54,1.31 11.2,1.97 16.93,1.97 9.89,0 17.59,-1.97 23.13,-5.89 5.65,-4.05 8.47,-9.29 8.47,-15.77 0,-6.08 -2.34,-11.11 -7.04,-15.03 -4.62,-3.94 -13.42,-7.36 -26.38,-10.27 -18.54,-4.03 -32.51,-9.51 -41.92,-16.44 -9.41,-6.94 -14.12,-16.32 -14.12,-28.13 0,-12.37 5.28,-22.93 15.83,-31.65 10.63,-8.7 24.41,-13.06 41.34,-13.06 11.57,0 21.95,1.5 31.17,4.5 9.23,3 16.89,7.17 22.99,12.51l1.42 33.59z"/>
   <path class="fil1" d="M4743.78 4272.59c0,-11.45 3.31,-21.43 9.89,-29.96 6.68,-8.63 16.6,-17.25 29.77,-25.87 -7.34,-9.29 -12.81,-17.55 -16.38,-24.76 -3.57,-7.31 -5.36,-14.81 -5.36,-22.5 0,-15.84 4.57,-28.03 13.68,-36.55 9.23,-8.64 21.88,-12.95 37.97,-12.95 14.86,0 26.94,4.27 36.24,12.8 9.33,8.53 13.97,18.8 13.97,30.8 0,9.19 -2.48,17.15 -7.48,23.9 -4.88,6.66 -12.18,13.5 -21.86,20.53l-15.39 11.25 47.98 57.51c3.87,-6.1 6.87,-12.84 9.05,-20.26 2.15,-7.39 3.25,-15.22 3.25,-23.48l24.82 0c0,12.28 -1.83,23.67 -5.51,34.17 -3.66,10.5 -8.98,19.94 -15.94,28.28l26.11 31.5 -0.29 0.7 -32.32 0 -11.98 -14.34c-7.52,5.63 -15.86,9.95 -24.98,12.95 -9.12,2.89 -18.57,4.36 -28.36,4.36 -20.4,0 -36.67,-5.38 -48.81,-16.17 -12.05,-10.79 -18.06,-24.76 -18.06,-41.9zm66.88 36.41c6.78,0 13.46,-1.12 20.04,-3.37 6.59,-2.34 12.8,-5.67 18.64,-9.99l-50.93 -61.16 -5.66 4.07c-8.54,6.38 -14.23,12.47 -17.08,18.28 -2.72,5.82 -4.08,11.06 -4.08,15.77 0,10.58 3.35,19.29 10.02,26.13 6.68,6.87 16.36,10.27 29.05,10.27zm-21.16 -139.77c0,4.97 1.27,10.17 3.82,15.61 2.53,5.34 6.35,11.2 11.42,17.59l19.46 -13.37c5.37,-3.56 9,-7.4 10.87,-11.53 1.97,-4.21 2.96,-8.85 2.96,-13.91 0,-5.73 -2.31,-10.79 -6.9,-15.18 -4.52,-4.42 -10.44,-6.62 -17.78,-6.62 -7.63,0 -13.5,2.67 -17.65,8.01 -4.13,5.26 -6.2,11.71 -6.2,19.4z"/>
   <path class="fil1" d="M5146.04 4183.43l-21.04 0 -5.22 -29.25c-4.23,-3.56 -9.86,-6.52 -16.93,-8.86 -7.05,-2.34 -15.23,-3.51 -24.56,-3.51 -14.76,0 -26.09,3.15 -33.98,9.41 -7.91,6.21 -11.86,14.3 -11.86,24.32 0,8.92 3.98,16.38 11.98,22.38 8.09,5.9 21.12,11.1 39.1,15.59 21.61,5.34 38.03,13.23 49.23,23.63 11.28,10.39 16.93,23.3 16.93,38.67 0,16.5 -6.78,29.77 -20.31,39.8 -13.44,10.02 -31.1,15.04 -52.92,15.04 -15.79,0 -29.85,-2.57 -42.17,-7.73 -12.23,-5.16 -22.2,-11.92 -29.92,-20.26l0 -38.11 20.9 0 5.34 29.4c5.37,4.4 11.77,8.01 19.19,10.83 7.44,2.81 16.34,4.21 26.67,4.21 14.02,0 25.07,-2.96 33.17,-8.85 8.18,-5.92 12.26,-13.93 12.26,-24.04 0,-9.39 -3.51,-17.22 -10.58,-23.48 -7.05,-6.39 -19.52,-11.73 -37.37,-16.03 -21.74,-5.16 -38.71,-12.76 -50.94,-22.79 -12.22,-10.02 -18.35,-22.64 -18.35,-37.83 0,-16.03 6.83,-29.34 20.47,-39.94 13.62,-10.69 31.35,-16.03 53.17,-16.03 14.41,0 27.47,2.49 39.22,7.46 11.86,4.87 21.37,10.83 28.51,17.85l0 38.11z"/>
   <path class="fil1" d="M5172.13 4309.98l22.99 -3.95 0 -175.9 -22.99 -3.94 0 -17.85 50.79 0 0 87.46c5.26,-7.31 11.71,-12.98 19.34,-17.01 7.6,-4.02 16.07,-6.04 25.4,-6.04 16.35,0 29.05,4.87 38.09,14.61 9.02,9.76 13.54,24.76 13.54,45l0 73.68 22.99 3.95 0 17.71 -73.79 0 0 -17.71 22.99 -3.95 0 -73.94c0,-12.57 -2.73,-21.85 -8.18,-27.84 -5.36,-6 -13.39,-9 -24.12,-9 -7.63,0 -14.59,1.81 -20.9,5.47 -6.21,3.57 -11.32,8.44 -15.37,14.62l0 90.7 22.99 3.95 0 17.71 -73.79 0 0 -17.71z"/>
   <path class="fil1" d="M5462.07 4327.69c-0.85,-4.11 -1.5,-7.83 -1.97,-11.1 -0.48,-3.28 -0.8,-6.58 -0.99,-9.84 -5.37,6.84 -12.09,12.55 -20.18,17.13 -8,4.5 -16.56,6.76 -25.69,6.76 -15.88,0 -27.98,-3.84 -36.27,-11.53 -8.25,-7.79 -12.41,-18.7 -12.41,-32.78 0,-14.42 5.84,-25.53 17.51,-33.32 11.75,-7.86 27.84,-11.81 48.24,-11.81l28.64 0 0 -17.71c0,-8.9 -2.81,-15.94 -8.47,-21.08 -5.65,-5.26 -13.5,-7.89 -23.57,-7.89 -6.94,0 -13.11,0.91 -18.47,2.67 -5.28,1.79 -9.55,4.23 -12.84,7.31l-2.96 16.03 -21.45 0 0 -29.53c6.97,-5.53 15.37,-9.93 25.26,-13.22 9.88,-3.36 20.6,-5.05 32.17,-5.05 17.3,0 31.31,4.4 42.04,13.21 10.73,8.81 16.09,21.41 16.09,37.83l0 73.25c0,1.97 0,3.91 0,5.78 0.09,1.86 0.23,3.74 0.41,5.63l11.3 1.54 0 17.71 -36.41 0zm-44.73 -20.24c9.23,0 17.65,-2.2 25.25,-6.62 7.62,-4.4 13.09,-9.7 16.37,-15.88l0 -25.03 -29.63 0c-11.39,0 -20.4,2.61 -27.08,7.87 -6.59,5.24 -9.89,11.63 -9.89,19.13 0,6.66 2.07,11.75 6.21,15.32 4.13,3.46 10.4,5.2 18.76,5.2z"/>
   <polygon class="fil1" points="5571.71,4193.42 5553.36,4196.21 5584.82,4282.84 5587.36,4293.81 5588.21,4293.81 5590.88,4282.84 5621.37,4196.21 5602.88,4193.42 5602.88,4175.54 5661.84,4175.54 5661.84,4193.42 5649.3,4195.51 5598.09,4327.69 5577.07,4327.69 5525.27,4195.51 5512.72,4193.42 5512.72,4175.54 5571.71,4175.54 "/>
   <path class="fil1" d="M5748.49 4330.65c-21.27,0 -38.2,-7.03 -50.79,-21.1 -12.51,-14.14 -18.78,-32.47 -18.78,-54.97l0 -6.21c0,-21.64 6.45,-39.64 19.34,-53.99 12.99,-14.43 28.31,-21.64 46,-21.64 20.5,0 36.02,6.18 46.56,18.55 10.62,12.37 15.94,28.86 15.94,49.5l0 17.29 -99.05 0 -0.41 0.7c0.26,14.63 3.98,26.68 11.14,36.14 7.15,9.37 17.18,14.06 30.06,14.06 9.39,0 17.63,-1.31 24.67,-3.94 7.15,-2.71 13.32,-6.41 18.5,-11.1l10.86 18c-5.46,5.24 -12.7,9.7 -21.73,13.36 -8.94,3.56 -19.7,5.34 -32.3,5.34zm-4.23 -136.13c-9.33,0 -17.26,3.95 -23.86,11.82 -6.58,7.78 -10.62,17.58 -12.12,29.4l0.26 0.7 70.42 0 0 -3.66c0,-10.87 -2.92,-19.97 -8.76,-27.29 -5.83,-7.32 -14.48,-10.97 -25.95,-10.97z"/>
   <path class="fil1" d="M5951.09 4223.35l-20.87 0 -4.53 -18.27c-3.36,-3.21 -7.66,-5.73 -12.84,-7.6 -5.08,-1.97 -10.85,-2.96 -17.34,-2.96 -9.89,0 -17.23,2.16 -22.01,6.48 -4.81,4.31 -7.21,9.51 -7.21,15.61 0,6 2.12,10.73 6.35,14.2 4.23,3.47 12.84,6.56 25.83,9.29 19.29,4.11 33.63,9.74 43.02,16.87 9.41,7.03 14.12,16.49 14.12,28.39 0,13.5 -5.5,24.43 -16.5,32.78 -10.91,8.34 -25.21,12.51 -42.9,12.51 -11.57,0 -21.97,-1.31 -31.17,-3.94 -9.23,-2.71 -17.46,-6.59 -24.7,-11.67l-0.15 -34.72 20.87 0 5.22 20.38c3.21,2.92 7.54,5.02 12.98,6.33 5.55,1.31 11.2,1.97 16.94,1.97 9.88,0 17.58,-1.97 23.13,-5.89 5.65,-4.05 8.47,-9.29 8.47,-15.77 0,-6.08 -2.34,-11.11 -7.05,-15.03 -4.6,-3.94 -13.4,-7.36 -26.38,-10.27 -18.53,-4.03 -32.51,-9.51 -41.9,-16.44 -9.4,-6.94 -14.11,-16.32 -14.11,-28.13 0,-12.37 5.26,-22.93 15.79,-31.65 10.63,-8.7 24.42,-13.06 41.35,-13.06 11.56,0 21.96,1.5 31.16,4.5 9.22,3 16.89,7.17 23.02,12.51l1.4 33.59z"/>
   <path class="fil1" d="M4071.49 1764.41l15.24 -2.11 71.82 -184.91 23.84 0 70.54 184.91 15.1 2.11 0 17.71 -58.97 0 0 -17.71 15.52 -2.67 -13.55 -37.69 -82.25 0 -13.97 37.69 15.52 2.67 0 17.71 -58.83 0 0 -17.71zm65.88 -63.56l65.18 0 -31.88 -87.88 -0.85 0 -32.45 87.88z"/>
   <polygon class="fil1" points="4324.61,1647.83 4307.11,1650.93 4327.01,1726.72 4330.25,1745.14 4331.1,1745.14 4335.04,1726.72 4365.52,1629.97 4387.81,1629.97 4418.44,1726.72 4422.79,1747.25 4423.66,1747.25 4427.75,1726.72 4446.5,1650.93 4428.74,1647.83 4428.74,1629.97 4486.86,1629.97 4486.86,1647.83 4473.58,1649.8 4435.08,1782.12 4412.65,1782.12 4383.02,1689.46 4376.67,1663.86 4375.82,1664 4369.9,1689.46 4340.83,1782.12 4318.39,1782.12 4279.88,1649.8 4266.47,1647.83 4266.47,1629.97 4324.61,1629.97 "/>
   <path class="fil1" d="M4579.14 1785.08c-21.26,0 -38.2,-7.04 -50.79,-21.1 -12.52,-14.15 -18.79,-32.48 -18.79,-54.97l0 -6.19c0,-21.66 6.45,-39.65 19.34,-53.99 12.98,-14.44 28.31,-21.66 46,-21.66 20.51,0 36.02,6.19 46.56,18.56 10.62,12.38 15.95,28.87 15.95,49.5l0 17.29 -99.06 0 -0.41 0.71c0.27,14.62 3.98,26.67 11.14,36.13 7.15,9.37 17.18,14.06 30.06,14.06 9.41,0 17.63,-1.31 24.68,-3.94 7.14,-2.72 13.31,-6.42 18.49,-11.1l10.87 17.99c-5.47,5.25 -12.7,9.71 -21.74,13.36 -8.94,3.56 -19.7,5.35 -32.3,5.35zm-4.23 -136.12c-9.31,0 -17.26,3.94 -23.86,11.81 -6.57,7.78 -10.62,17.57 -12.12,29.38l0.29 0.71 70.4 0 0 -3.66c0,-10.87 -2.92,-19.97 -8.75,-27.28 -5.84,-7.31 -14.49,-10.97 -25.95,-10.97z"/>
   <path class="fil1" d="M4781.73 1677.79l-20.87 0 -4.52 -18.28c-3.37,-3.19 -7.66,-5.72 -12.82,-7.6 -5.1,-1.97 -10.87,-2.95 -17.36,-2.95 -9.89,0 -17.22,2.15 -22.01,6.47 -4.81,4.31 -7.19,9.51 -7.19,15.61 0,6 2.12,10.73 6.35,14.2 4.23,3.47 12.82,6.56 25.8,9.28 19.29,4.13 33.63,9.75 43.05,16.88 9.39,7.04 14.09,16.5 14.09,28.41 0,13.5 -5.51,24.42 -16.5,32.76 -10.9,8.34 -25.21,12.52 -42.9,12.52 -11.57,0 -21.96,-1.32 -31.17,-3.94 -9.23,-2.72 -17.44,-6.61 -24.7,-11.66l-0.15 -34.74 20.88 0 5.23 20.39c3.18,2.9 7.52,5.01 12.97,6.32 5.55,1.31 11.2,1.97 16.93,1.97 9.89,0 17.59,-1.97 23.13,-5.91 5.66,-4.03 8.47,-9.28 8.47,-15.75 0,-6.09 -2.34,-11.1 -7.04,-15.04 -4.61,-3.94 -13.4,-7.36 -26.39,-10.27 -18.53,-4.03 -32.5,-9.51 -41.89,-16.45 -9.41,-6.94 -14.12,-16.32 -14.12,-28.13 0,-12.37 5.26,-22.92 15.81,-31.64 10.62,-8.72 24.41,-13.08 41.33,-13.08 11.57,0 21.96,1.5 31.19,4.5 9.21,3 16.88,7.17 22.99,12.51l1.4 33.61z"/>
   <path class="fil1" d="M4812.36 1704.64c0,-22.5 6.1,-41.01 18.33,-55.54 12.22,-14.62 28.83,-21.94 49.81,-21.94 21.08,0 37.72,7.27 49.95,21.8 12.32,14.53 18.49,33.09 18.49,55.68l0 3.1c0,22.68 -6.13,41.24 -18.35,55.68 -12.22,14.44 -28.83,21.66 -49.8,21.66 -21.17,0 -37.87,-7.22 -50.1,-21.66 -12.22,-14.53 -18.33,-33.09 -18.33,-55.68l0 -3.1zm27.78 3.1c0,16.12 3.39,29.43 10.17,39.93 6.87,10.5 17.02,15.75 30.47,15.75 13.17,0 23.17,-5.25 30.05,-15.75 6.87,-10.5 10.3,-23.81 10.3,-39.93l0 -3.1c0,-15.94 -3.43,-29.2 -10.3,-39.79 -6.88,-10.59 -16.99,-15.89 -30.34,-15.89 -13.36,0 -23.43,5.3 -30.19,15.89 -6.78,10.59 -10.17,23.86 -10.17,39.79l0 3.1z"/>
   <path class="fil1" d="M4968.96 1764.41l22.99 -3.94 0 -108.7 -22.99 -3.94 0 -17.86 47.96 0 1.85 19.83c4.89,-7.21 11.18,-12.79 18.9,-16.73 7.7,-3.94 16.64,-5.91 26.81,-5.91 10.15,0 18.84,2.34 26.09,7.03 7.34,4.69 12.84,11.72 16.5,21.1 4.81,-8.63 11.15,-15.47 19.04,-20.53 7.91,-5.06 17.11,-7.6 27.66,-7.6 15.62,0 27.94,5.34 36.97,16.03 9.04,10.59 13.56,26.58 13.56,47.95l0 69.32 22.99 3.94 0 17.71 -73.93 0 0 -17.71 22.99 -3.94 0 -69.61c0,-15 -2.59,-25.59 -7.77,-31.78 -5.17,-6.28 -12.83,-9.42 -22.98,-9.42 -9.7,0 -17.51,3.42 -23.43,10.27 -5.83,6.75 -9.23,15.28 -10.15,25.6l0 74.95 22.99 3.94 0 17.71 -73.78 0 0 -17.71 22.99 -3.94 0 -69.61c0,-14.25 -2.69,-24.66 -8.06,-31.22 -5.26,-6.65 -12.92,-9.98 -22.99,-9.98 -8.47,0 -15.43,1.74 -20.87,5.2 -5.47,3.47 -9.64,8.35 -12.56,14.62l0 90.98 22.99 3.94 0 17.71 -73.79 0 0 -17.71z"/>
   <path class="fil1" d="M5315.9 1785.08c-21.24,0 -38.18,-7.04 -50.79,-21.1 -12.51,-14.15 -18.76,-32.48 -18.76,-54.97l0 -6.19c0,-21.66 6.43,-39.65 19.34,-53.99 12.96,-14.44 28.31,-21.66 45.98,-21.66 20.51,0 36.02,6.19 46.56,18.56 10.62,12.38 15.94,28.87 15.94,49.5l0 17.29 -99.04 0 -0.43 0.71c0.3,14.62 4.01,26.67 11.16,36.13 7.13,9.37 17.15,14.06 30.04,14.06 9.41,0 17.63,-1.31 24.7,-3.94 7.14,-2.72 13.31,-6.42 18.47,-11.1l10.87 17.99c-5.44,5.25 -12.7,9.71 -21.72,13.36 -8.94,3.56 -19.7,5.35 -32.32,5.35zm-4.23 -136.12c-9.3,0 -17.26,3.94 -23.83,11.81 -6.59,7.78 -10.64,17.57 -12.15,29.38l0.3 0.71 70.39 0 0 -3.66c0,-10.87 -2.92,-19.97 -8.73,-27.28 -5.84,-7.31 -14.49,-10.97 -25.98,-10.97z"/>
   <polygon class="fil2" points="2363.21,3797.98 7089.65,3797.98 7089.65,3756.84 2363.21,3756.84 "/>
   <polygon class="fil2" points="2363.21,2152.38 7089.65,2152.38 7089.65,2111.24 2363.21,2111.24 "/>
   <path class="fil3" d="M3457.92 2908.86l0 289.13c0,24.58 -5,48 -15.03,70.26 -9.24,21.5 -21.95,40.32 -38.14,56.45 -16.18,16.12 -35.44,28.79 -57.79,38.01 -21.57,9.98 -44.69,14.97 -69.35,14.97 -24.66,0 -47.77,-4.6 -69.35,-13.82 -21.57,-9.21 -40.45,-21.5 -56.63,-36.85 -16.18,-16.13 -29.28,-34.56 -39.29,-55.3 -9.25,-21.49 -14.26,-44.53 -15.03,-69.11l0 -213.1c-2.31,-23.81 -13.1,-41.09 -32.37,-51.83 10.79,-5.38 21.58,-8.07 32.37,-8.07l0 -271.85c0.77,-24.57 5.78,-47.61 15.03,-69.11 10.02,-21.51 23.11,-39.93 39.29,-55.29 16.18,-16.12 35.06,-28.8 56.63,-38.01 21.57,-9.22 44.69,-13.82 69.35,-13.82 24.66,0 47.77,4.99 69.35,14.98 22.35,9.21 41.61,21.88 57.79,38.01 16.18,16.12 28.9,35.33 38.14,57.59 10.02,21.5 15.03,44.92 15.03,70.27 0,13.05 1.16,22.65 3.47,28.79 3.08,6.14 6.17,11.14 9.25,14.97 3.08,3.84 5.78,7.3 8.09,10.37 3.07,3.07 4.62,8.07 4.62,14.98l-60.11 0c-12.32,-1.54 -18.49,-8.07 -18.49,-19.59 0,11.52 -6.17,18.05 -18.49,19.59l-61.26 0c0,-6.91 1.15,-11.91 3.46,-14.98 3.08,-3.07 6.17,-6.52 9.24,-10.37 3.08,-3.84 5.79,-8.83 8.09,-14.97 3.08,-6.14 4.63,-16.13 4.63,-29.95l0 -1.15c0,-9.99 -0.39,-21.89 -1.16,-35.71 -0.77,-14.59 -3.47,-28.42 -8.09,-41.47 -4.62,-13.05 -11.94,-24.19 -21.96,-33.41 -10.02,-9.22 -23.89,-13.82 -41.61,-13.82 -18.49,0 -32.75,4.99 -42.76,14.97 -9.25,9.22 -16.18,20.35 -20.81,33.41 -4.62,13.05 -7.32,26.88 -8.09,41.47 -0.77,14.59 -1.15,26.88 -1.15,36.86l0 267.24c10.79,0 21.57,2.69 32.36,8.07 -19.27,10.75 -30.05,28.03 -32.36,51.83l0 208.49c0,9.99 0.38,22.27 1.15,36.86 0.77,13.82 3.47,27.64 8.09,41.47 4.63,13.05 11.56,24.19 20.81,33.4 10.02,9.22 24.27,13.83 42.76,13.83 18.49,0 32.37,-4.61 41.61,-13.83 10.02,-9.21 17.34,-20.35 21.96,-33.4 4.62,-13.82 7.32,-27.64 8.09,-41.47 0.77,-14.59 1.16,-26.88 1.16,-36.86l0 -236.14c-8.48,0.77 -15.8,4.22 -21.96,10.37 -5.4,6.14 -8.09,13.43 -8.09,21.88l0 1.15c-0.77,11.53 -3.85,21.5 -9.25,29.95 -4.62,7.68 -11.56,14.59 -20.81,20.73 -9.24,5.37 -22.73,8.06 -40.45,8.06l0 -145.14 208.04 0zm-298.2 -33.41c0,-4.61 -0.39,-9.21 -1.16,-13.82 0,-4.61 0,-8.84 0,-12.67l0 -26.5c-0.77,-16.89 -1.16,-33.02 -1.16,-48.38 0,-15.36 -0.38,-29.95 -1.15,-43.78 -0.78,-6.91 -1.16,-13.05 -1.16,-18.43 0,-6.14 -0.39,-12.28 -1.16,-18.43 0,-5.38 -0.39,-10.37 -1.16,-14.98 0,-5.37 0,-9.98 0,-13.82 0,-3.84 -0.39,-7.29 -1.16,-10.37 0,-3.07 0,-5.75 0,-8.06l0 -5.76c-0.77,0 -1.16,0.39 -1.16,1.16l0 4.6c0,2.31 -0.38,4.99 -1.16,8.06 0,3.08 0,6.53 0,10.37 0,3.84 -0.38,8.45 -1.15,13.82 0,4.61 0,9.6 0,14.98 -0.78,6.14 -1.16,12.29 -1.16,18.43 0,5.37 -0.39,11.52 -1.16,18.43 -0.77,13.82 -1.16,28.42 -1.16,43.78 0,15.36 -0.38,31.49 -1.16,48.38l0 26.5c0,3.84 -0.38,8.06 -1.16,12.67 0,4.61 0,9.21 0,13.82l0 107.13c0,2.3 0,4.61 0,6.91 0.78,2.3 1.16,4.23 1.16,5.75l0 39.17c0,8.44 0,16.89 0,25.34 0.78,7.68 1.16,15.36 1.16,23.04 0,8.45 0,16.51 0,24.19 0.77,6.91 1.16,13.43 1.16,19.58 0.77,6.91 1.16,13.44 1.16,19.58 0,6.14 0.38,11.91 1.16,17.28 0,6.14 0,11.52 0,16.13 0.77,4.6 1.15,8.83 1.15,12.66 0,3.84 0,7.3 0,10.37 0.78,3.08 1.16,5.76 1.16,8.07l0 5.75c0,0.77 0.39,1.16 1.16,1.16l0 -6.91c0,-2.31 0,-4.99 0,-8.07 0.77,-3.07 1.16,-6.52 1.16,-10.37 0,-3.84 0,-8.06 0,-12.66 0.77,-4.61 1.16,-9.99 1.16,-16.13 0.77,-5.37 1.16,-11.14 1.16,-17.28 0,-6.14 0.38,-12.67 1.16,-19.58 0,-6.14 0,-12.67 0,-19.58 0.77,-7.68 1.15,-15.74 1.15,-24.19 0,-7.68 0,-15.36 0,-23.04 0.77,-8.45 1.16,-16.9 1.16,-25.34l0 -25.35c0,-6.14 0.39,-10.75 1.16,-13.82l0 -119.8zm251.97 167.03c-0.77,-7.68 -1.16,-14.59 -1.16,-20.73 0,-6.91 -0.38,-13.44 -1.16,-19.58 -0.77,-11.52 -1.93,-21.12 -3.46,-28.8 0,-1.54 -0.39,-3.07 -1.16,-4.61 0,-1.54 0,-2.69 0,-3.46l0 -3.46 -1.16 1.15 0 2.31c0,0.77 -0.38,1.92 -1.16,3.46 0,1.53 0,3.07 0,4.61 -1.54,7.68 -2.69,17.28 -3.46,28.8 -0.77,6.14 -1.16,12.67 -1.16,19.58 0,6.14 -0.39,13.05 -1.16,20.73l0 11.52c0,2.31 -0.38,4.61 -1.16,6.91 0,1.54 0,3.07 0,4.61l0 48.38c0,2.3 0.39,4.23 1.16,5.75l0 17.28c0,3.84 0,7.3 0,10.37 0.77,3.08 1.16,6.53 1.16,10.37 0,3.84 0,7.3 0,10.37 0.77,3.08 1.16,6.14 1.16,9.22 0.77,3.07 1.16,6.14 1.16,9.22 0,2.3 0.38,4.61 1.15,6.91 0,2.3 0,4.61 0,6.91 0.78,2.3 1.16,4.22 1.16,5.75 0,1.54 0,3.07 0,4.61 0.78,1.53 1.16,2.69 1.16,3.46l0 2.3c0,0.77 0.39,1.16 1.16,1.16l0 -3.46c0,-0.77 0,-1.93 0,-3.46 0.77,-1.54 1.16,-3.08 1.16,-4.61 0,-1.53 0,-3.46 0,-5.75 0.77,-2.31 1.16,-4.61 1.16,-6.91 0.77,-2.31 1.15,-4.61 1.15,-6.91 0,-3.07 0.39,-6.14 1.16,-9.22 0,-3.07 0,-6.14 0,-9.22 0.78,-3.07 1.16,-6.52 1.16,-10.37 0,-3.84 0,-7.29 0,-10.37 0.78,-3.07 1.16,-6.52 1.16,-10.37l0 -11.52c0,-3.07 0.39,-4.99 1.16,-5.76l0 -54.13c0,-1.54 -0.39,-3.07 -1.16,-4.61 0,-2.3 0,-4.61 0,-6.91l0 -11.52z"/>
   <path class="fil3" d="M3877.81 2930.75c13.09,0 23.88,2.69 32.36,8.06 -8.48,5.37 -15.8,12.67 -21.96,21.88 -5.4,9.22 -8.86,19.2 -10.4,29.95l0 173.94c-0.78,24.58 -6.17,47.61 -16.18,69.11 -9.25,20.74 -21.96,39.17 -38.14,55.3 -16.18,15.35 -35.05,27.65 -56.63,36.86 -21.57,9.22 -44.69,13.82 -69.35,13.82 -24.66,0 -47.77,-4.61 -69.35,-13.82 -21.57,-9.21 -40.45,-21.5 -56.63,-36.86 -16.18,-16.13 -29.28,-34.56 -39.3,-55.3 -9.25,-21.5 -14.26,-44.54 -15.03,-69.11l0 -173.94c-2.31,-23.81 -13.1,-41.09 -32.37,-51.83 8.48,-5.37 19.27,-8.06 32.37,-8.06l0 -222.32c0.77,-23.81 5.78,-46.46 15.03,-67.97 10.02,-21.5 23.12,-39.93 39.3,-55.29 16.18,-16.12 35.06,-28.8 56.63,-38.01 21.57,-9.21 44.69,-13.82 69.35,-13.82 24.66,0 47.77,4.61 69.35,13.82 21.58,9.22 40.46,21.89 56.63,38.01 16.18,15.36 28.9,33.79 38.14,55.29 10.02,21.5 15.41,44.16 16.18,67.97l0 222.32zm-298.2 -41.47c0,-3.84 -0.39,-7.3 -1.16,-10.37 0,-3.84 0,-7.67 0,-11.52l0 -21.88c-0.77,-14.59 -1.16,-28.42 -1.16,-41.47 0,-13.05 -0.38,-25.35 -1.16,-36.86 -0.77,-5.37 -1.15,-10.75 -1.15,-16.13 0,-5.37 -0.39,-10.37 -1.16,-14.97 0,-4.6 -0.39,-8.83 -1.16,-12.67 0,-3.84 0,-7.29 0,-10.37 0,-3.84 -0.39,-6.91 -1.16,-9.21 0,-3.07 0,-5.37 0,-6.91l0 -5.76c-0.77,0 -1.16,0.38 -1.16,1.15l0 4.61c0,1.54 -0.38,3.84 -1.16,6.91 0,2.3 0,5.37 0,9.21 0,3.07 -0.38,6.53 -1.15,10.37 0,3.84 0,8.07 0,12.67 -0.78,4.61 -1.16,9.6 -1.16,14.97 0,5.38 -0.39,10.75 -1.16,16.13 -0.77,11.52 -1.16,23.81 -1.16,36.86 0,13.05 -0.39,26.88 -1.16,41.47l0 21.88c0,3.84 -0.38,7.68 -1.15,11.52 0,3.07 0,6.53 0,10.37l0 91c0,5.37 0.38,9.22 1.15,11.52l0 33.41c0,6.91 0,13.82 0,20.73 0.77,6.91 1.16,13.44 1.16,19.59 0,6.91 0,13.43 0,19.58 0.77,5.38 1.16,11.14 1.16,17.28 0.77,6.14 1.16,11.9 1.16,17.28 0,4.61 0.38,9.22 1.16,13.82 0,4.61 0,8.83 0,12.67 0.77,3.84 1.15,7.68 1.15,11.52 0,3.84 0,7.3 0,10.37 0.78,2.31 1.16,4.23 1.16,5.76l0 3.46c0,0.77 0.39,1.15 1.16,1.15l0 -4.6c0,-1.54 0,-3.46 0,-5.76 0.77,-3.07 1.16,-6.52 1.16,-10.37 0,-3.84 0,-7.68 0,-11.52 0.77,-3.84 1.16,-8.06 1.16,-12.67 0.77,-4.6 1.16,-9.21 1.16,-13.82 0,-5.37 0.38,-11.14 1.15,-17.28 0,-6.14 0,-11.9 0,-17.28 0.78,-6.14 1.16,-12.67 1.16,-19.58 0,-6.14 0,-12.67 0,-19.59 0.78,-6.91 1.16,-13.82 1.16,-20.73l0 -33.41c0.77,-2.3 1.16,-6.14 1.16,-11.52l0 -91zm190.71 -176.25c0,-9.98 -0.39,-22.27 -1.16,-36.86 -0.77,-14.59 -3.46,-28.42 -8.09,-41.47 -4.62,-13.06 -11.94,-24.19 -21.96,-33.41 -9.24,-9.98 -23.11,-14.97 -41.61,-14.97 -18.49,0 -32.75,4.99 -42.77,14.97 -9.24,9.22 -16.17,20.35 -20.8,33.41 -4.62,13.05 -7.31,26.88 -8.09,41.47 -0.77,14.59 -1.15,26.88 -1.15,36.86l0 217.72c13.09,0 23.89,2.69 32.36,8.06 -19.27,10.75 -30.05,28.03 -32.36,51.83l0 169.33c0,9.99 0.38,22.27 1.15,36.86 0.78,13.82 3.47,27.65 8.09,41.47 4.63,13.05 11.56,24.19 20.8,33.4 10.02,9.22 24.28,13.83 42.77,13.83 18.5,0 32.37,-4.61 41.61,-13.83 10.02,-9.21 17.34,-20.34 21.96,-33.4 4.63,-13.82 7.32,-27.64 8.09,-41.47 0.77,-14.59 1.16,-26.88 1.16,-36.86l0 -169.33c-1.55,-23.04 -12.33,-40.32 -32.37,-51.83 8.48,-5.37 19.27,-8.06 32.37,-8.06l0 -217.72zm62.41 176.25c0,-3.84 0,-7.3 0,-10.37 0,-3.84 -0.39,-7.67 -1.16,-11.52l0 -21.88c0,-14.59 -0.39,-28.42 -1.16,-41.47 0,-13.05 -0.38,-25.35 -1.16,-36.86 -0.77,-5.37 -1.15,-10.75 -1.15,-16.13 0,-5.37 -0.39,-10.37 -1.16,-14.97 0,-4.6 -0.39,-8.83 -1.16,-12.67 0,-3.84 0,-7.29 0,-10.37 0,-3.84 -0.39,-6.91 -1.16,-9.21 0,-3.07 0,-5.37 0,-6.91l0 -5.76c-0.77,0 -1.16,0.38 -1.16,1.15l0 4.61c0,1.54 0,3.84 0,6.91 0,2.3 -0.38,5.37 -1.16,9.21 0,3.07 -0.38,6.53 -1.15,10.37 0,3.84 0,8.07 0,12.67 -0.78,4.61 -1.16,9.6 -1.16,14.97 0,5.38 -0.39,10.75 -1.16,16.13 -0.77,11.52 -1.16,23.81 -1.16,36.86 0,13.05 -0.38,26.88 -1.16,41.47l0 43.77c-0.77,7.68 -1.16,15.35 -1.16,23.03 0,7.68 0,15.36 0,23.04 0,7.68 0,15.36 0,23.04 0,6.91 0.39,14.21 1.16,21.89l0 44.92c0,6.91 0,13.82 0,20.73 0.78,6.91 1.16,13.44 1.16,19.59 0,6.91 0,13.43 0,19.58 0.77,5.38 1.16,11.14 1.16,17.28 0.77,6.14 1.16,11.9 1.16,17.28 0,4.61 0.38,9.22 1.16,13.82 0,4.61 0,8.83 0,12.67 0.77,3.84 1.15,7.68 1.15,11.52 0.78,3.84 1.16,7.3 1.16,10.37 0,2.31 0,4.23 0,5.76l0 3.46c0,0.77 0.39,1.15 1.16,1.15l0 -4.6c0,-1.54 0,-3.46 0,-5.76 0.77,-3.07 1.16,-6.52 1.16,-10.37 0,-3.84 0,-7.68 0,-11.52 0.77,-3.84 1.16,-8.06 1.16,-12.67 0.77,-4.6 1.16,-9.21 1.16,-13.82 0,-5.37 0.38,-11.14 1.15,-17.28 0,-6.14 0,-11.9 0,-17.28 0.78,-6.14 1.16,-12.67 1.16,-19.58 0,-6.14 0,-12.67 0,-19.59 0.77,-6.91 1.16,-13.82 1.16,-20.73l0 -21.88c0,-1.54 0,-3.46 0,-5.76 0.77,-2.31 1.16,-4.23 1.16,-5.76l0 -102.52z"/>
   <path class="fil3" d="M4306.72 2782.15c0,34.56 -8.47,65.66 -25.42,93.3 -16.95,27.65 -39.68,49.15 -68.19,64.51 13.87,10.75 26.58,23.42 38.14,38.01 11.56,13.82 21.19,29.18 28.9,46.08 8.48,16.89 15.03,34.17 19.65,51.84 4.63,17.66 6.93,34.94 6.93,51.83l0 73.72c-0.77,24.58 -5.78,47.61 -15.03,69.11 -9.24,20.73 -21.95,39.16 -38.14,55.29 -16.18,15.36 -35.06,27.64 -56.63,36.86 -21.57,9.98 -44.69,14.97 -69.35,14.97l-108.65 0c-5.39,0 -10.02,-1.92 -13.87,-5.76 -3.08,-3.84 -4.62,-8.44 -4.62,-13.82 0,5.37 -1.93,9.98 -5.78,13.82 -3.85,3.84 -8.09,5.76 -12.71,5.76l-61.26 0c0,-6.91 1.16,-11.9 3.47,-14.97 3.08,-3.07 6.17,-6.53 9.25,-10.37 3.08,-3.07 5.78,-7.68 8.08,-13.82 3.08,-6.14 4.63,-15.74 4.63,-28.8l0 -321.39c-2.31,-23.03 -13.1,-39.93 -32.37,-50.68 10.02,-6.14 20.8,-9.22 32.37,-9.22l0 -378.98c0,-13.05 -1.55,-22.65 -4.63,-28.8 -2.31,-6.14 -5,-10.75 -8.08,-13.82 -3.08,-3.84 -6.17,-7.3 -9.25,-10.37 -2.31,-3.07 -3.47,-8.07 -3.47,-14.98l61.26 0c4.62,0 8.86,1.92 12.71,5.76 3.85,3.07 5.78,7.29 5.78,12.67 0,-12.29 6.17,-18.44 18.49,-18.44l108.65 0c24.66,0 47.77,4.61 69.35,13.82 21.57,9.22 40.45,21.89 56.63,38.01 16.18,15.36 28.9,33.79 38.14,55.29 9.25,21.5 14.26,44.16 15.03,67.96l0 125.56zm-298.2 85.24c0,-5.37 -0.39,-10.37 -1.16,-14.97 0,-5.38 0,-10.37 0,-14.97l0 -29.95c-0.77,-19.96 -1.16,-38.78 -1.16,-56.45 0,-17.66 -0.39,-34.17 -1.16,-49.53 -0.77,-8.45 -1.15,-16.13 -1.15,-23.04 0,-6.91 -0.39,-13.43 -1.16,-19.58 0,-6.15 -0.39,-11.9 -1.16,-17.28 0,-6.14 0,-11.14 0,-14.98 0,-4.61 -0.39,-8.83 -1.16,-12.67 0,-3.84 0,-6.91 0,-9.22l0 -6.91c-0.77,0.77 -1.16,1.54 -1.16,2.31l0 4.61c0,2.31 -0.39,5.37 -1.16,9.22 0,3.84 0,8.06 0,12.67 0,3.84 -0.38,8.84 -1.15,14.98 0,5.37 0,11.13 0,17.28 -0.78,6.14 -1.16,12.67 -1.16,19.58 0,6.91 -0.39,14.59 -1.16,23.04 -0.77,15.36 -1.16,31.87 -1.16,49.53 0,17.67 -0.39,36.48 -1.16,56.45l0 29.95c0,4.6 0,9.59 0,14.97 0,4.61 -0.38,9.6 -1.16,14.97l0 123.26c0,3.08 0,5.76 0,8.06 0.78,2.31 1.16,4.99 1.16,8.07l0 43.77c0,9.99 0,19.96 0,29.95 0.77,9.22 1.16,18.05 1.16,26.5 0,8.44 0,16.89 0,25.34 0.77,8.45 1.16,16.9 1.16,25.34 0.77,3.84 1.16,7.68 1.16,11.53 0,3.07 0,6.52 0,10.37 0,3.84 0,7.29 0,10.37 0.77,3.07 1.16,6.14 1.16,9.21 0,6.14 0,12.29 0,18.44 0.77,5.37 1.15,10.37 1.15,14.97 0,4.6 0,8.83 0,12.67 0.77,3.07 1.16,5.75 1.16,8.06l0 5.76c0,0.77 0.39,1.54 1.16,2.3l0 -8.06c0,-2.31 0,-4.99 0,-8.06 0.77,-3.84 1.16,-8.07 1.16,-12.67 0,-4.61 0,-9.6 0,-14.97 0.77,-6.14 1.16,-12.29 1.16,-18.44 0.77,-3.07 1.16,-6.14 1.16,-9.21 0,-3.08 0,-6.53 0,-10.37 0,-3.84 0,-7.3 0,-10.37 0.77,-3.84 1.15,-7.68 1.15,-11.53 0,-8.44 0,-16.89 0,-25.34 0.77,-8.45 1.16,-16.9 1.16,-25.34 0,-8.45 0,-17.28 0,-26.5 0.77,-9.99 1.16,-19.96 1.16,-29.95l0 -28.8c0,-6.91 0.39,-11.9 1.16,-14.97l0 -139.39zm238.1 311.02c-0.77,2.31 -1.16,6.15 -1.16,11.53l0 20.73c0,3.84 -0.39,7.29 -1.16,10.37 0,3.07 0,6.14 0,9.21 0,3.07 -0.38,5.76 -1.16,8.07 0,2.3 0,4.61 0,6.91l0 3.46c-0.77,0.77 -1.16,1.92 -1.16,3.46l0 5.76c-0.77,0.76 -1.15,1.53 -1.15,2.3l0 2.31c0,0.77 -0.39,1.54 -1.16,2.3 0,0 0,0.39 0,1.16 0,0.77 -0.39,1.54 -1.16,2.3l1.16 0c0,0 0.39,-0.76 1.16,-2.3 0,0 0.38,-0.77 1.15,-2.31 0.78,-0.77 1.16,-1.54 1.16,-2.31 0.78,-0.76 1.16,-1.53 1.16,-2.3 0.77,-0.77 1.16,-1.54 1.16,-2.31 0.77,-0.77 1.16,-1.92 1.16,-3.46 1.54,-1.54 2.31,-3.46 2.31,-5.76 1.54,-3.07 3.08,-8.44 4.62,-16.12 1.54,-4.61 2.31,-7.68 2.31,-9.22 0.77,-1.54 1.15,-3.07 1.15,-4.61 0,-2.31 0.39,-4.22 1.16,-5.76 0,-1.54 0,-3.07 0,-4.61 0.78,-2.31 1.16,-4.22 1.16,-5.76 0.77,-2.31 1.16,-5.76 1.16,-10.37 0.77,-3.84 1.16,-7.68 1.16,-11.52 0,-3.84 0.38,-7.68 1.16,-11.53l0 -48.38c0,-3.84 -0.39,-7.68 -1.16,-11.52 0,-3.84 -0.39,-7.68 -1.16,-11.52 0,-4.61 -0.39,-8.07 -1.16,-10.37 0,-1.54 -0.38,-3.08 -1.16,-4.61 0,-2.3 0,-4.23 0,-5.75 -0.77,-1.54 -1.16,-3.08 -1.16,-4.61 0,-2.3 -0.38,-4.23 -1.15,-5.75 0,-1.54 -0.39,-3.07 -1.16,-4.61 0,-1.53 0,-3.07 0,-4.61 -1.55,-4.6 -2.32,-7.3 -2.32,-8.06 -0.77,-2.31 -1.93,-4.99 -3.46,-8.07 0,-2.3 -0.78,-4.23 -2.31,-5.75 0,-2.31 -0.77,-4.23 -2.32,-5.76 -1.54,-3.07 -2.69,-5.37 -3.46,-6.91 -0.77,-0.77 -1.16,-1.54 -1.16,-2.31l-1.16 0c0,0 0.39,0.77 1.16,2.31 0,0.77 0,1.54 0,2.31 0.77,0 1.16,0.38 1.16,1.15 0,1.54 0.38,3.08 1.15,4.61l0 5.76c0.78,1.54 1.16,3.46 1.16,5.76 0,3.84 0.39,6.52 1.16,8.06l0 8.06c0.77,3.07 1.16,6.14 1.16,9.22 0,3.07 0,6.52 0,10.37l0 10.37c0,1.54 0,3.46 0,5.76 0.77,1.54 1.16,3.07 1.16,4.61l0 80.63zm-47.39 -50.68c0,-9.99 -0.39,-24.19 -1.16,-42.63 -0.77,-18.43 -3.47,-36.86 -8.09,-55.29 -4.62,-18.43 -11.94,-34.17 -21.96,-47.22 -9.25,-13.82 -23.12,-20.73 -41.61,-20.73l-41.61 0c-8.47,0 -15.8,3.07 -21.96,9.21 -6.17,6.14 -9.25,13.44 -9.25,21.89l0 299.5c0,8.44 3.08,15.74 9.25,21.88 6.17,5.37 13.49,8.45 21.96,9.22l41.61 0c18.49,0 32.36,-4.61 41.61,-13.83 10.02,-9.98 17.34,-21.5 21.96,-34.56 4.62,-13.05 7.32,-26.88 8.09,-41.47 0.77,-14.58 1.16,-26.88 1.16,-36.86l0 -69.11zm0 -466.53c0,-9.98 -0.39,-21.88 -1.16,-35.71 -0.77,-14.59 -3.47,-28.42 -8.09,-41.47 -4.62,-13.05 -11.94,-24.19 -21.96,-33.41 -9.25,-9.98 -23.12,-14.97 -41.61,-14.97l-41.61 0c-8.47,0 -15.8,3.07 -21.96,9.22 -6.17,6.14 -9.25,13.43 -9.25,21.88l0 309.87c0,8.45 3.08,15.74 9.25,21.89 6.17,6.14 13.49,9.22 21.96,9.22l41.61 0c18.49,0 32.36,-4.6 41.61,-13.82 10.02,-9.22 17.34,-20.35 21.96,-33.41 4.62,-13.82 7.32,-27.64 8.09,-41.47 0.77,-14.59 1.16,-26.88 1.16,-36.86l0 -120.95zm52.01 152.05c1.55,-4.6 2.31,-7.67 2.31,-9.21 1.54,-3.07 2.31,-6.14 2.31,-9.22 0.77,-1.54 1.15,-3.07 1.15,-4.6 0,-2.31 0.39,-4.23 1.16,-5.76 0,-1.54 0,-3.08 0,-4.61 0.78,-2.31 1.16,-4.61 1.16,-6.91 0.77,-2.31 1.16,-6.14 1.16,-11.52 0.77,-3.84 1.16,-7.68 1.16,-11.52 0,-3.84 0.38,-7.68 1.16,-11.52l0 -25.35c0,-8.44 0,-16.51 0,-24.19 0,-8.44 -0.39,-16.51 -1.16,-24.19 -0.78,-2.3 -1.16,-4.22 -1.16,-5.75 0,-2.31 -0.39,-4.22 -1.16,-5.76 0,-5.37 -0.38,-9.22 -1.16,-11.52 -0.77,-3.84 -1.54,-7.3 -2.31,-10.37 0,-3.07 -0.39,-6.15 -1.16,-9.22 -1.55,-4.6 -2.32,-7.68 -2.32,-9.22 -1.54,-3.07 -2.31,-5.37 -2.31,-6.91 -1.54,-3.07 -2.69,-5.37 -3.46,-6.91 0,-2.3 -0.77,-4.22 -2.32,-5.75 -0.77,-2.3 -1.93,-4.99 -3.46,-8.07l-2.32 -2.3 0 1.15c0,0.77 0,1.15 0,1.15 0.77,0 1.16,0.39 1.16,1.16 0.77,0.76 1.16,1.92 1.16,3.46 0,1.53 0.38,3.07 1.15,4.61l0 5.76c0.78,1.54 1.16,3.84 1.16,6.91 0,1.53 0,3.07 0,4.6 0.78,0.77 1.16,1.92 1.16,3.46l0 8.06c0.77,3.07 1.16,6.14 1.16,9.22 0,3.07 0,6.53 0,10.37l0 11.52c0,1.54 0,3.46 0,5.76 0.77,1.54 1.16,3.07 1.16,4.6l0 85.25c-0.77,2.3 -1.16,6.14 -1.16,11.52l0 21.89c0,3.84 -0.39,7.29 -1.16,10.37 0,3.07 0,6.14 0,9.22 0,3.07 -0.38,6.14 -1.16,9.21 0,2.31 0,4.61 0,6.91 0,3.84 -0.38,6.14 -1.16,6.91l0 6.91c-0.77,0 -1.15,0.77 -1.15,2.31l0 2.31c0,0.76 -0.39,1.53 -1.16,2.3 0,0 0,0.39 0,1.15 0,0.77 -0.39,1.54 -1.16,2.31l2.32 -2.31c0,-0.76 0,-1.15 0,-1.15 0.77,-0.77 1.15,-1.54 1.15,-2.3 0.78,0 1.16,-0.77 1.16,-2.31 0.78,0 1.16,-0.77 1.16,-2.31 0.77,0 1.16,-0.77 1.16,-2.3 0.77,-0.77 1.16,-1.93 1.16,-3.46 1.54,-1.54 2.31,-3.46 2.31,-5.76 1.54,-4.61 2.31,-7.3 2.31,-8.07z"/>
   <path class="fil3" d="M4743.9 3270.56c3.08,13.05 6.56,22.65 10.4,28.8 3.86,6.14 7.7,11.14 11.56,14.98 3.84,3.84 7.32,7.29 10.4,10.37 3.08,3.07 5.41,8.06 6.95,14.97l-61.27 0c-5.39,0 -10.4,-1.92 -15.02,-5.76 -3.87,-3.84 -6.17,-8.44 -6.95,-13.82 0.78,5.37 -0.36,9.98 -3.45,13.82 -3.08,3.84 -6.95,5.76 -11.57,5.76l-61.25 0c-1.54,-6.91 -1.15,-11.9 1.15,-14.97 2.32,-3.08 4.62,-6.14 6.94,-9.22 2.31,-3.84 4.23,-8.83 5.78,-14.97 1.54,-6.91 1.15,-17.28 -1.15,-31.1l0 -1.16 -25.44 -130.16c-1.54,-7.68 -5.77,-14.21 -12.72,-19.58 -6.92,-6.14 -14.62,-9.22 -23.11,-9.22l-79.75 0c-8.48,0 -16.19,3.07 -23.11,9.22 -6.95,5.37 -11.18,11.9 -12.72,19.58l-24.27 130.16 0 1.16c-2.32,13.82 -3.08,24.19 -2.32,31.1 1.55,6.14 3.47,11.14 5.78,14.97 3.08,3.07 5.4,6.14 6.94,9.22 2.3,3.07 3.08,8.06 2.3,14.97l-61.25 0c-5.4,0 -9.63,-1.92 -12.71,-5.76 -3.08,-3.84 -4.24,-8.44 -3.47,-13.82 -0.77,5.37 -3.08,9.98 -6.94,13.82 -3.85,3.84 -8.47,5.76 -13.87,5.76l-61.25 0c0.77,-6.91 2.69,-11.9 5.78,-14.97 3.08,-3.08 6.56,-6.53 10.41,-10.37 3.85,-3.84 7.7,-8.84 11.55,-14.98 3.85,-6.14 7.32,-15.74 10.41,-28.8l52.01 -279.92c1.55,-10.75 0.39,-20.73 -3.46,-29.95 -3.85,-9.21 -10.02,-16.51 -18.5,-21.88 12.33,-5.37 23.51,-8.06 33.52,-8.06l62.41 -328.3c2.32,-13.05 2.71,-22.65 1.16,-28.8 -1.54,-6.91 -3.47,-11.91 -5.79,-14.97 -2.3,-3.84 -4.62,-7.3 -6.92,-10.37 -2.32,-3.08 -2.69,-8.07 -1.15,-14.98l77.42 0c11.57,1.54 17.34,8.07 17.34,19.58 0,-5.37 1.55,-9.6 4.62,-12.67 3.87,-3.84 8.1,-6.14 12.72,-6.91l78.6 0c1.54,6.91 1.17,11.9 -1.16,14.98 -1.54,3.07 -3.47,6.52 -5.77,10.37 -2.32,3.07 -4.25,8.06 -5.79,14.97 -1.55,6.14 -1.15,15.74 1.17,28.8l61.25 328.3c6.17,0 11.93,0.77 17.34,2.3 5.38,1.54 10.79,3.46 16.17,5.76 -16.95,10.75 -24.27,28.03 -21.95,51.83l52.01 279.92zm-277.4 -412.38c1.54,-4.61 2.32,-8.84 2.32,-12.67 0.76,-4.61 1.54,-8.83 2.3,-12.67 3.86,-17.66 6.94,-34.17 9.25,-49.53 2.32,-16.13 4.62,-30.72 6.94,-43.77 1.54,-6.14 2.3,-12.29 2.3,-18.43 0.78,-6.14 1.55,-12.29 2.32,-18.44 0.76,-5.37 1.55,-10.37 2.3,-14.97 0.78,-4.61 1.55,-8.83 2.32,-12.67 0.76,-3.84 1.16,-7.29 1.16,-10.37 0,-3.84 0.39,-6.91 1.15,-9.21l0 -4.61 -1.15 4.61c-0.76,2.3 -1.55,4.99 -2.31,8.06 -0.78,3.07 -1.54,6.53 -2.32,10.37 -1.54,3.84 -2.69,8.45 -3.47,13.82 -0.76,4.61 -1.91,9.22 -3.45,13.82 -1.55,6.14 -3.08,12.29 -4.63,18.43 -0.78,6.15 -1.93,12.29 -3.47,18.44 -3.86,13.05 -7.7,27.26 -11.56,42.62 -3.08,14.59 -6.54,30.72 -10.4,48.38 0,4.61 -0.39,8.83 -1.15,12.67 -0.78,3.84 -1.93,8.06 -3.47,12.67 -0.76,4.61 -1.55,9.22 -2.31,13.83 -0.78,3.84 -1.54,8.06 -2.32,12.67 -2.3,8.45 -4.62,17.28 -6.92,26.5 -1.55,9.21 -3.08,18.43 -4.63,27.65 -1.54,8.45 -3.47,17.28 -5.79,26.5 -1.54,9.21 -3.08,18.04 -4.62,26.49 -0.76,2.31 -1.15,4.61 -1.15,6.91 0,1.54 -0.39,3.46 -1.16,5.76 -1.54,6.14 -2.32,10.75 -2.32,13.82 -2.3,7.68 -3.84,16.13 -4.61,25.34 -1.54,8.45 -3.08,16.9 -4.62,25.35 -1.55,8.44 -2.7,16.12 -3.47,23.03 -2.31,17.67 -4.62,32.26 -6.93,43.78 -1.54,6.14 -2.7,12.28 -3.47,18.43 -0.77,6.15 -1.54,12.29 -2.31,18.44 -1.55,5.37 -2.69,10.75 -3.47,16.12 0,4.61 -0.38,8.84 -1.16,12.67 -0.77,3.84 -1.15,7.29 -1.15,10.37 0,3.07 -0.39,5.76 -1.16,8.06 0,1.54 -0.39,2.69 -1.16,3.46 0,0 0,0.39 0,1.16l0 1.15c0.77,0 1.16,-0.38 1.16,-1.15 0,-1.54 0.39,-3.07 1.16,-4.61 0.77,-1.53 1.15,-3.84 1.15,-6.91 0.78,-3.84 1.94,-7.68 3.47,-11.52 1.55,-3.84 2.69,-8.06 3.46,-12.67 1.55,-4.61 3.08,-9.6 4.63,-14.97 1.54,-5.37 2.7,-11.14 3.46,-17.28 1.55,-6.14 2.7,-12.29 3.47,-18.43 1.54,-6.14 3.08,-12.67 4.62,-19.59 2.31,-7.68 4.24,-15.36 5.78,-23.04 1.55,-7.68 3.08,-15.74 4.63,-24.19 2.32,-8.44 4.62,-16.89 6.94,-25.34 0.76,-3.84 1.54,-7.68 2.3,-11.52 0.78,-4.61 1.55,-8.84 2.32,-12.67l3.46 -13.82c0.78,-2.31 1.17,-4.61 1.17,-6.91 0,-2.31 0.36,-4.61 1.15,-6.91 1.54,-8.45 3.47,-16.9 5.77,-25.34 2.32,-9.22 4.23,-18.44 5.78,-27.64 1.54,-8.45 3.08,-17.28 4.62,-26.5 1.54,-9.22 3.08,-18.05 4.62,-26.5 0.78,-4.6 1.55,-9.22 2.32,-13.82 0.76,-4.6 1.55,-8.83 2.31,-12.66zm98.25 196.98c8.47,-0.77 15.02,-3.84 19.64,-9.22 5.4,-6.14 7.32,-13.44 5.78,-21.88l-6.93 -33.41c-3.08,-10.75 -8.48,-20.73 -16.19,-29.95 -6.92,-9.21 -15.41,-16.51 -25.42,-21.88 9.25,-5.37 19.26,-8.06 30.05,-8.06l-36.99 -196.98 -36.98 196.98c10.02,0 20.43,2.69 31.21,8.06 -10.79,5.37 -20.04,12.67 -27.74,21.88 -6.95,9.22 -11.57,19.2 -13.87,29.95l-5.78 33.41c-1.54,8.44 0,15.74 4.63,21.88 4.62,5.37 10.79,8.45 18.49,9.22l60.1 0zm116.73 161.26c0,1.54 0,2.69 0,3.46 0.78,0 1.17,0.39 1.17,1.16l0 -4.61c-0.78,-2.3 -1.17,-4.99 -1.17,-8.06 0,-3.08 -0.37,-6.53 -1.15,-10.37 -0.76,-3.84 -1.55,-8.06 -2.31,-12.67 0,-5.37 -0.78,-10.75 -2.32,-16.12 -0.75,-6.14 -1.54,-12.29 -2.3,-18.44 -0.78,-6.14 -1.93,-12.29 -3.47,-18.43 -2.32,-11.52 -4.62,-26.11 -6.94,-43.78 -1.55,-6.91 -3.08,-14.59 -4.63,-23.03 -0.75,-8.45 -1.91,-16.9 -3.45,-25.35 -1.55,-4.61 -2.71,-8.83 -3.47,-12.67 0,-3.84 -0.78,-8.07 -2.32,-12.67 0,-3.08 -0.76,-7.68 -2.31,-13.82 0,-2.31 -0.39,-4.22 -1.15,-5.76 0,-2.3 0,-4.61 0,-6.91 -1.54,-8.45 -3.47,-17.28 -5.79,-26.49 -1.54,-9.22 -3.08,-18.05 -4.62,-26.5 -1.55,-9.22 -3.46,-18.44 -5.78,-27.65 -1.54,-9.22 -3.47,-18.05 -5.77,-26.5 -0.78,-4.61 -1.54,-8.83 -2.32,-12.67 -0.76,-4.61 -1.55,-9.22 -2.3,-13.83 -1.55,-4.61 -2.72,-8.83 -3.48,-12.67 -0.78,-3.84 -1.54,-8.06 -2.32,-12.67 -3.84,-17.66 -7.7,-33.79 -11.55,-48.38 -3.07,-15.36 -5.77,-29.56 -8.09,-42.62 -1.54,-6.14 -3.08,-12.28 -4.62,-18.44 -1.55,-6.14 -3.08,-12.28 -4.63,-18.43 -1.54,-4.6 -3.07,-9.22 -4.62,-13.82 -0.76,-5.37 -1.93,-9.99 -3.47,-13.82 -0.76,-3.84 -1.54,-7.29 -2.3,-10.37 -0.78,-3.07 -1.55,-5.76 -2.32,-8.06l-1.16 -4.61 0 4.61c0.78,3.84 1.94,10.37 3.48,19.58 0,3.84 0.39,8.07 1.15,12.67 0.78,4.61 1.54,9.6 2.32,14.97 0.76,6.15 1.54,12.29 2.3,18.44 0.78,6.14 1.93,12.28 3.47,18.43 2.31,13.05 4.63,27.64 6.93,43.77 2.32,15.36 5.01,31.87 8.09,49.53 0.78,3.84 1.16,8.06 1.16,12.67 0.78,3.84 1.93,8.06 3.47,12.67 0.78,3.84 1.54,8.06 2.32,12.66 0.76,4.61 1.54,9.22 2.3,13.82 1.54,8.45 3.08,17.28 4.62,26.5 2.32,9.22 4.23,18.05 5.78,26.5 1.54,9.21 3.47,18.43 5.79,27.64 2.3,8.44 4.23,16.89 5.77,25.34 0.78,2.31 1.16,4.61 1.16,6.91 0,2.31 0.39,4.61 1.17,6.91l3.46 13.82c0.78,3.84 1.54,8.06 2.32,12.67 0.76,3.84 1.54,7.67 2.3,11.52 2.32,8.45 4.26,16.9 5.79,25.34 1.55,8.45 3.08,16.51 4.63,24.19 1.54,7.68 3.07,15.36 4.62,23.04 2.3,6.91 4.23,13.44 5.77,19.59 1.55,6.14 3.08,12.28 4.63,18.43 1.54,6.14 3.08,11.9 4.62,17.28 2.3,10.75 4.62,19.97 6.93,27.65 1.54,3.84 2.32,7.68 2.32,11.52 0.76,3.07 1.54,5.38 2.3,6.91z"/>
   <path class="fil3" d="M5228.84 3388.06c8.49,1.54 14.26,4.23 17.34,8.07 3.84,3.84 6.55,7.67 8.1,11.52 1.54,4.61 2.3,9.6 2.3,14.97 -24.66,0 -47.77,-3.07 -69.35,-9.21 -21.57,-6.15 -40.85,-16.13 -57.8,-29.95 -16.17,-13.82 -29.28,-31.87 -39.28,-54.14 -9.25,-22.27 -13.87,-49.53 -13.87,-81.79l0 -157.81c0,-9.99 -0.4,-22.27 -1.17,-36.86 -0.76,-14.59 -3.46,-28.42 -8.08,-41.47 -4.62,-13.05 -11.96,-24.19 -21.96,-33.41 -9.25,-9.98 -23.12,-14.97 -41.61,-14.97l-47.4 0c-6.93,1.54 -13.09,5.37 -18.49,11.52 -4.63,5.37 -6.93,11.91 -6.93,19.59l0 275.31c0,13.82 1.15,24.19 3.47,31.1 3.08,6.14 6.17,11.14 9.25,14.97 3.08,3.07 5.77,6.14 8.08,9.22 3.07,3.07 4.62,8.06 4.62,14.97l-61.25 0c-4.63,0 -8.86,-1.92 -12.72,-5.76 -3.84,-3.84 -5.78,-8.06 -5.78,-12.67 0,4.61 -1.92,8.83 -5.77,12.67 -3.08,3.84 -7.34,5.76 -12.72,5.76l-60.1 0c0,-6.91 1.15,-11.9 3.46,-14.97 3.07,-3.08 6.18,-6.14 9.26,-9.22 3.08,-3.84 5.77,-8.83 8.08,-14.97 3.08,-6.14 4.62,-15.74 4.62,-28.8l0 -281.06c-2.3,-23.81 -13.09,-41.09 -32.36,-51.83 8.49,-5.37 19.27,-8.06 32.36,-8.06l0 -329.45c0,-13.05 -1.54,-22.65 -4.62,-28.79 -2.3,-6.14 -4.99,-10.76 -8.08,-13.82 -3.08,-3.84 -6.19,-7.3 -9.26,-10.37 -2.31,-3.08 -3.46,-8.07 -3.46,-14.98l61.25 0c4.63,0 8.86,1.93 12.72,5.76 3.84,3.07 5.78,7.29 5.78,12.67 0,-12.29 6.16,-18.44 18.49,-18.44l108.65 0c24.66,0 47.77,4.61 69.35,13.82 21.57,9.22 40.45,21.89 56.64,38.01 16.18,15.36 28.89,33.79 38.14,55.29 9.25,21.5 14.26,44.16 15.02,67.97l0 74.88c0,32.25 -7.7,61.81 -23.12,88.7 -15.41,26.88 -36.2,48.38 -62.42,64.5 26.22,15.36 47.01,36.86 62.42,64.51 15.41,26.88 23.12,56.44 23.12,88.7l0 153.2c0,16.13 0,32.64 0,49.54 0.78,16.12 2.69,31.1 5.78,44.92 3.07,13.06 7.7,24.2 13.86,33.41 6.17,9.22 14.65,14.98 25.44,17.28zm-105.18 -624.34c-0.78,1.54 -1.15,3.46 -1.15,5.76l0 26.5c-0.78,3.07 -1.17,6.14 -1.17,9.21 0,2.31 0,4.61 0,6.91 0,1.54 -0.37,2.69 -1.15,3.46 0,0.77 0,1.92 0,3.46l0 6.91c-0.76,1.54 -1.15,3.46 -1.15,5.76 0,1.54 -0.4,3.07 -1.16,4.61 0,1.54 -0.39,2.69 -1.17,3.46l0 2.31 -1.15 2.3c0,0 0.78,-0.38 2.31,-1.15l0 -1.15 1.16 -1.16c0.76,-0.76 1.15,-1.15 1.15,-1.15 0,-0.77 0.39,-1.54 1.15,-2.3 0.78,-1.54 1.54,-3.08 2.32,-4.61 0.76,-2.3 1.54,-4.23 2.32,-5.75 0.76,-1.54 1.15,-2.31 1.15,-2.31 0,-0.77 0.37,-1.92 1.15,-3.46 0.78,-1.54 1.15,-2.69 1.15,-3.46 0,-1.54 0.39,-3.07 1.17,-4.61 0.76,-1.53 1.15,-2.69 1.15,-3.46 0,-0.76 0.4,-1.92 1.16,-3.46 0,-1.53 0,-2.69 0,-3.45 0.78,-1.54 1.15,-3.08 1.15,-4.61 0.78,-3.07 1.17,-6.14 1.17,-9.22 0.75,-3.07 1.54,-6.14 2.3,-9.21 0.78,-2.31 1.15,-5.76 1.15,-10.37 0,-1.54 0,-3.07 0,-4.61 0.78,-1.54 1.17,-3.07 1.17,-4.61l0 -40.32c0,-4.61 -0.39,-8.06 -1.17,-10.37l0 -4.6c0,-1.54 -0.37,-2.31 -1.15,-2.31 0,-0.76 0,-1.92 0,-3.46 0,-3.84 -0.76,-9.6 -2.3,-17.28 -0.78,-1.53 -1.17,-3.07 -1.17,-4.61 0,-1.54 -0.37,-3.07 -1.15,-4.61 0,-0.77 -0.4,-1.16 -1.16,-1.16 0,-0.76 0,-1.53 0,-2.3 0,-0.77 -0.39,-1.16 -1.15,-1.16 0,-0.76 0,-1.53 0,-2.3 -0.78,-1.54 -1.17,-2.69 -1.17,-3.46 0,-0.77 -0.37,-1.93 -1.15,-3.46 -0.78,-1.54 -1.15,-2.69 -1.15,-3.46 0,-0.77 -0.39,-1.93 -1.15,-3.46 -0.78,-0.77 -1.17,-1.54 -1.17,-2.31 0,-0.77 -0.39,-1.54 -1.15,-2.31 -1.54,-3.07 -2.32,-4.61 -2.32,-4.61 -0.76,-0.77 -1.15,-1.15 -1.15,-1.15 0,-0.77 -0.39,-1.54 -1.15,-2.31 -0.78,-0.77 -1.16,-1.54 -1.16,-2.31 -0.78,-0.76 -1.17,-1.53 -1.17,-2.3l-1.15 0c0,0 0.39,0.77 1.15,2.3l0 2.31c0.78,0.77 1.17,2.31 1.17,4.6 0,0.77 0,1.54 0,2.31 0.76,0 1.16,0.77 1.16,2.31 0,2.3 0.39,4.22 1.15,5.75l0 5.76c0,1.54 0,2.69 0,3.46 0.78,0.77 1.15,1.92 1.15,3.46 0,6.91 0.39,12.29 1.17,16.13l0 18.43c0.76,3.84 1.15,9.99 1.15,18.43l0 43.78zm-238.1 118.64c0,-3.84 -0.39,-8.06 -1.15,-12.66 0,-4.61 0,-9.22 0,-13.82l0 -25.34c-0.78,-16.9 -1.17,-33.03 -1.17,-48.39 0,-15.35 -0.37,-29.95 -1.15,-43.77 -0.76,-6.14 -1.15,-12.28 -1.15,-18.44 0,-6.14 -0.4,-11.9 -1.15,-17.28 0,-6.14 -0.4,-11.52 -1.17,-16.12 0,-4.61 0,-8.84 0,-12.67 0,-3.84 -0.37,-7.29 -1.15,-10.37 0,-3.07 0,-5.76 0,-8.06l0 -5.76c-0.76,0 -1.16,0.38 -1.16,1.15l0 4.61c0,2.3 -0.39,4.99 -1.15,8.06 0,3.07 0,6.53 0,10.37 0,3.84 -0.39,8.06 -1.17,12.67 0,4.6 0,9.98 0,16.12 -0.75,5.38 -1.15,11.14 -1.15,17.28 0,6.15 -0.39,12.29 -1.15,18.44 -0.78,13.82 -1.15,28.42 -1.15,43.77 0,15.36 -0.39,31.49 -1.17,48.39l0 25.34c0,4.6 -0.37,9.22 -1.15,13.82 0,4.6 0,8.83 0,12.66l0 107.14c0,6.14 0.39,10.75 1.15,13.82l0 38.01c0,8.44 0,16.89 0,25.34 0.78,7.68 1.17,15.36 1.17,23.04 0,8.44 0,16.12 0,23.03 0.76,6.91 1.15,13.82 1.15,20.73 0.76,6.91 1.15,13.44 1.15,19.59 0,5.37 0.39,11.14 1.15,17.28 0,5.37 0,10.37 0,14.97 0.78,4.61 1.17,8.84 1.17,12.67 0,3.84 0,7.68 0,11.52 0.76,3.07 1.15,5.38 1.15,6.91l0 5.76c0,0.77 0.4,1.16 1.16,1.16l0 -6.92c0,-1.53 0,-3.84 0,-6.91 0.78,-3.84 1.15,-7.68 1.15,-11.52 0,-3.84 0,-8.06 0,-12.67 0.78,-4.61 1.17,-9.6 1.17,-14.97 0.75,-6.14 1.15,-11.9 1.15,-17.28 0,-6.14 0.39,-12.67 1.15,-19.59 0,-6.91 0,-13.82 0,-20.73 0.78,-6.91 1.15,-14.59 1.15,-23.03 0,-7.68 0,-15.36 0,-23.04 0.78,-8.45 1.17,-16.9 1.17,-25.34l0 -25.35c0,-6.14 0.37,-10.37 1.15,-12.67l0 -120.96zm190.72 -169.33c0,-9.98 -0.4,-22.27 -1.17,-36.86 -0.76,-14.59 -3.46,-28.42 -8.08,-41.47 -4.62,-13.06 -11.96,-24.19 -21.96,-33.41 -9.25,-9.98 -23.12,-14.97 -41.61,-14.97l-41.61 0c-8.49,0.76 -15.81,4.22 -21.96,10.37 -6.17,6.14 -9.25,13.43 -9.25,21.88l0 259.18c0,8.45 3.08,15.74 9.25,21.89 6.16,6.14 13.47,9.21 21.96,9.21l41.61 0c18.49,0 32.36,-4.6 41.61,-13.82 10,-9.22 17.34,-20.34 21.96,-33.4 4.62,-13.83 7.32,-27.65 8.08,-41.48 0.78,-14.58 1.17,-26.88 1.17,-36.86l0 -70.27zm77.44 631.25c0,0 -0.39,-0.38 -1.17,-1.15l-1.15 -1.15c-0.76,-1.54 -1.55,-3.07 -2.3,-4.61 0,-1.53 -0.78,-3.07 -2.32,-4.6 -0.76,-2.31 -1.55,-4.61 -2.31,-6.91 -0.78,-3.07 -1.54,-6.52 -2.32,-10.37 -1.54,-7.68 -2.3,-14.97 -2.3,-21.88 -0.78,-3.84 -1.17,-7.68 -1.17,-11.53 0,-4.6 0,-9.6 0,-14.97l0 -61.05c0,-5.37 0,-10.75 0,-16.12 0,-5.37 0.39,-11.14 1.17,-17.28 0,-5.38 0,-10.75 0,-16.13 0,-5.37 -0.39,-10.75 -1.17,-16.13l0 -16.12c0,-7.68 -0.37,-13.06 -1.15,-16.13 0,-5.37 -0.39,-10.37 -1.15,-14.97 0,-5.38 -0.4,-10.37 -1.15,-14.98 -1.54,-10.75 -3.08,-19.96 -4.63,-27.64 -0.78,-3.84 -1.54,-7.29 -2.32,-10.37 -0.78,-3.84 -1.92,-7.68 -3.47,-11.52 -1.54,-3.84 -2.69,-6.91 -3.47,-9.22 -0.76,-2.3 -1.91,-4.6 -3.46,-6.91 -1.54,-2.31 -2.71,-4.23 -3.47,-5.75 -0.78,-1.54 -1.54,-3.08 -2.32,-4.61 -0.76,0 -1.54,-0.38 -2.3,-1.15 -0.78,0 -1.15,-0.38 -1.15,-1.15l1.15 1.15c0,0.77 0.39,1.54 1.15,2.31 0,0.76 0,1.53 0,2.3 0.78,0 1.15,0.77 1.15,2.31 0.78,0.77 1.17,1.54 1.17,2.3 0,0.77 0.37,1.93 1.15,3.46 0.76,3.07 1.93,8.44 3.47,16.12 0.76,3.84 1.16,7.68 1.16,11.53 0.76,3.84 1.54,7.67 2.3,11.52 0,3.84 0,8.06 0,12.67 0.78,3.84 1.17,8.44 1.17,13.82l0 142.84c0,3.07 0,5.76 0,8.06 0.76,2.31 1.15,4.99 1.15,8.07 0,5.37 0,10.75 0,16.13 0.76,4.61 1.54,9.21 2.32,13.82 0.76,4.61 1.15,9.22 1.15,13.82 0.76,4.61 1.55,8.84 2.3,12.67 1.55,4.61 2.72,8.83 3.48,12.67 0.78,3.07 1.93,6.52 3.47,10.37 1.54,3.84 2.69,6.91 3.47,9.22 0.76,2.3 1.91,4.6 3.45,6.9l2.32 2.31c0.76,0.77 1.16,1.54 1.16,2.31 0,0 0.39,0.38 1.15,1.15l4.62 4.61 1.17 0z"/>
   <path class="fil3" d="M5575.4 2783.3c0,32.25 -7.7,61.81 -23.11,88.7 -15.42,26.88 -36.23,48.38 -62.42,64.5 26.19,15.36 47,36.86 62.42,64.51 15.41,26.88 23.11,56.44 23.11,88.7l0 74.87c-0.76,24.58 -5.77,47.61 -15.02,69.11 -9.24,20.74 -21.96,39.17 -38.15,55.3 -16.17,15.35 -35.06,27.65 -56.63,36.86 -21.57,9.22 -44.69,13.82 -69.35,13.82l-109.8 0c-4.62,0 -8.85,-1.92 -12.72,-5.76 -3.84,-3.84 -5.77,-8.06 -5.77,-12.67 0,4.61 -1.93,8.83 -5.78,12.67 -3.08,3.84 -7.33,5.76 -12.72,5.76l-60.1 0c0,-6.91 1.16,-11.9 3.46,-14.97 3.08,-3.08 6.17,-6.14 9.24,-9.22 3.08,-3.84 5.8,-8.83 8.1,-14.97 3.08,-6.14 4.62,-15.74 4.62,-28.8l0 -281.06c-2.3,-23.81 -13.09,-41.09 -32.36,-51.83 8.49,-5.37 19.27,-8.06 32.36,-8.06l0 -329.45c0,-13.05 -1.54,-22.65 -4.62,-28.79 -2.3,-6.14 -5.02,-10.76 -8.1,-13.82 -3.07,-3.84 -6.16,-7.3 -9.24,-10.37 -2.3,-3.08 -3.46,-8.07 -3.46,-14.98l61.25 0c4.62,0 8.85,1.93 12.71,5.76 3.84,3.07 5.78,7.29 5.78,12.67 0,-12.29 6.17,-18.44 18.49,-18.44l108.65 0c24.66,0 47.77,4.61 69.35,13.82 21.57,9.22 40.46,21.89 56.63,38.01 16.19,15.36 28.91,33.79 38.15,55.29 9.25,21.5 14.26,44.16 15.02,67.97l0 74.88zm-298.2 99.06c0,-3.84 -0.39,-8.06 -1.15,-12.66 0,-4.61 0,-9.22 0,-13.82l0 -25.34c-0.78,-16.9 -1.17,-33.03 -1.17,-48.39 0,-15.35 -0.36,-29.95 -1.15,-43.77 -0.76,-6.14 -1.15,-12.28 -1.15,-18.44 0,-6.14 -0.39,-11.9 -1.15,-17.28 0,-6.14 -0.39,-11.52 -1.17,-16.12 0,-4.61 0,-8.84 0,-12.67 0,-3.84 -0.37,-7.29 -1.15,-10.37 0,-3.07 0,-5.76 0,-8.06l0 -5.76c-0.76,0 -1.15,0.38 -1.15,1.15l0 4.61c0,2.3 -0.4,4.99 -1.16,8.06 0,3.07 0,6.53 0,10.37 0,3.84 -0.39,8.06 -1.16,12.67 0,4.6 0,9.98 0,16.12 -0.76,5.38 -1.15,11.14 -1.15,17.28 0,6.15 -0.39,12.29 -1.16,18.44 -0.78,13.82 -1.15,28.42 -1.15,43.77 0,15.36 -0.39,31.49 -1.17,48.39l0 25.34c0,4.6 -0.36,9.22 -1.15,13.82 0,4.6 0,8.83 0,12.66l0 107.14c0,6.14 0.39,10.75 1.15,13.82l0 38.01c0,8.44 0,16.89 0,25.34 0.78,7.68 1.17,15.36 1.17,23.04 0,8.44 0,16.12 0,23.03 0.76,6.91 1.15,13.82 1.15,20.73 0.76,6.91 1.16,13.44 1.16,19.59 0,5.37 0.39,11.14 1.15,17.28 0,5.37 0,10.37 0,14.97 0.78,4.61 1.16,8.84 1.16,12.67 0,3.84 0,7.68 0,11.52 0.76,3.07 1.16,5.38 1.16,6.91l0 5.76c0,0.77 0.39,1.16 1.15,1.16l0 -6.92c0,-1.53 0,-3.84 0,-6.91 0.78,-3.84 1.15,-7.68 1.15,-11.52 0,-3.84 0,-8.06 0,-12.67 0.78,-4.61 1.17,-9.6 1.17,-14.97 0.76,-6.14 1.15,-11.9 1.15,-17.28 0,-6.14 0.39,-12.67 1.15,-19.59 0,-6.91 0,-13.82 0,-20.73 0.78,-6.91 1.15,-14.59 1.15,-23.03 0,-7.68 0,-15.36 0,-23.04 0.78,-8.45 1.17,-16.9 1.17,-25.34l0 -25.35c0,-6.14 0.37,-10.37 1.15,-12.67l0 -120.96zm238.1 267.25c-0.78,1.54 -1.15,3.46 -1.15,5.76l0 26.49c-0.78,3.07 -1.17,6.15 -1.17,9.22 0,2.31 0,4.61 0,6.91 0,1.54 -0.36,2.69 -1.15,3.46 0,0.77 0,1.92 0,3.46l0 6.91c-0.76,1.54 -1.15,3.46 -1.15,5.76 0,1.54 -0.39,3.07 -1.15,4.61 0,1.54 -0.4,2.69 -1.17,3.46l0 2.31 -1.15 2.3c0,0 0.78,-0.38 2.32,-1.15l0 -1.15 1.15 -1.16c0.76,-0.76 1.15,-1.15 1.15,-1.15 0,-0.77 0.39,-1.54 1.15,-2.3 0.78,-1.54 1.55,-3.07 2.32,-4.61 0.76,-2.31 1.55,-4.23 2.31,-5.76 0.78,-1.53 1.16,-2.3 1.16,-2.3 0,-0.77 0.37,-1.93 1.16,-3.46 0.75,-1.54 1.15,-2.69 1.15,-3.46 0,-0.77 0.39,-1.93 1.15,-3.46 0.78,-1.54 1.17,-2.69 1.17,-3.46 0,-1.54 0.36,-3.07 1.15,-4.61 0,-1.53 0,-2.69 0,-3.46 0.76,-1.53 1.15,-3.07 1.15,-4.61 0.78,-3.07 1.15,-6.14 1.15,-9.22 0.78,-3.07 1.55,-6.14 2.32,-9.21 0.76,-2.31 1.15,-5.76 1.15,-10.37 0,-1.54 0,-3.08 0,-4.61 0.78,-1.53 1.15,-3.07 1.15,-4.61l0 -40.32c0,-4.61 -0.36,-8.06 -1.15,-10.37l0 -4.61c0,-1.54 -0.39,-2.31 -1.15,-2.31 0,-0.77 0,-1.53 0,-2.3 0,-3.84 -0.39,-6.91 -1.15,-9.22 0,-3.07 -0.39,-6.14 -1.17,-9.22 -0.76,-1.53 -1.15,-3.07 -1.15,-4.6 0,-1.54 -0.39,-3.07 -1.15,-4.61 0,-0.77 -0.39,-1.16 -1.15,-1.16 0,-0.77 0,-1.53 0,-2.3 0,-0.77 -0.4,-1.16 -1.17,-1.16 0,-0.77 0,-1.53 0,-2.3 -0.76,-1.54 -1.15,-2.7 -1.15,-3.46 0,-0.77 -0.39,-1.93 -1.15,-3.46 -0.78,-1.53 -1.16,-2.69 -1.16,-3.45 0,-0.77 -0.39,-1.93 -1.16,-3.46 -0.76,-0.77 -1.16,-1.54 -1.16,-2.31 0,-0.77 -0.39,-1.54 -1.15,-2.31 -1.54,-3.07 -2.32,-4.6 -2.32,-4.6 -0.76,-0.77 -1.15,-1.15 -1.15,-1.15 0,-0.77 -0.39,-1.54 -1.15,-2.31 -0.78,-0.77 -1.15,-1.54 -1.15,-2.3l-2.32 -2.3c0,0 0.39,0.77 1.15,2.3l0 2.3c0.78,0.77 1.17,2.31 1.17,4.61 0,0.77 0,1.54 0,2.31 0.76,0 1.15,0.77 1.15,2.31 0,2.3 0.39,4.22 1.15,5.75l0 5.76c0,1.54 0,2.69 0,3.46 0.78,0.77 1.15,1.92 1.15,3.46 0,6.91 0.39,12.28 1.17,16.13l0 18.43c0.76,3.84 1.15,9.99 1.15,18.43l0 43.77zm-47.38 -59.9c0,-9.99 -0.39,-22.27 -1.17,-36.86 -0.76,-14.59 -3.45,-28.42 -8.09,-41.47 -4.63,-13.05 -11.94,-24.19 -21.95,-33.41 -9.25,-9.98 -23.12,-14.97 -41.61,-14.97l-41.63 0c-8.46,0.77 -15.78,4.23 -21.94,10.37 -6.17,6.14 -9.25,13.43 -9.25,21.88l0 259.19c0,8.44 3.08,15.74 9.25,21.88 6.17,6.14 13.48,9.22 21.94,9.22l41.63 0c18.49,0 32.36,-4.61 41.61,-13.83 10,-9.21 17.32,-20.34 21.95,-33.4 4.64,-13.82 7.33,-27.64 8.09,-41.47 0.78,-14.59 1.17,-26.88 1.17,-36.86l0 -70.26zm0 -376.68c0,-9.98 -0.39,-22.27 -1.17,-36.86 -0.76,-14.59 -3.45,-28.42 -8.09,-41.47 -4.63,-13.06 -11.94,-24.19 -21.95,-33.41 -9.25,-9.98 -23.12,-14.97 -41.61,-14.97l-41.63 0c-8.46,0.76 -15.78,4.22 -21.94,10.37 -6.17,6.14 -9.25,13.43 -9.25,21.88l0 259.18c0,8.45 3.08,15.74 9.25,21.89 6.17,6.14 13.48,9.21 21.94,9.21l41.63 0c18.49,0 32.36,-4.6 41.61,-13.82 10,-9.22 17.32,-20.34 21.95,-33.4 4.64,-13.83 7.33,-27.65 8.09,-41.48 0.78,-14.58 1.17,-26.88 1.17,-36.86l0 -70.27zm49.69 114.05c0.78,-1.54 1.16,-2.31 1.16,-2.31 0,-0.77 0.37,-1.92 1.16,-3.46 0.75,-1.54 1.15,-2.69 1.15,-3.46 0,-1.54 0.39,-3.07 1.15,-4.61 0.78,-1.53 1.17,-2.69 1.17,-3.46 0,-0.76 0.36,-1.92 1.15,-3.46 0,-1.53 0,-2.69 0,-3.45 0.76,-1.54 1.15,-3.08 1.15,-4.61 0.78,-3.07 1.15,-6.14 1.15,-9.22 0.78,-3.07 1.55,-6.14 2.32,-9.21 0.76,-2.31 1.15,-5.76 1.15,-10.37 0,-1.54 0,-3.07 0,-4.61 0.78,-1.54 1.15,-3.07 1.15,-4.61l0 -40.32c0,-4.61 -0.36,-8.06 -1.15,-10.37l0 -4.6c0,-1.54 -0.39,-2.31 -1.15,-2.31 0,-0.76 0,-1.92 0,-3.46 0,-3.84 -0.78,-9.6 -2.32,-17.28 -0.76,-1.53 -1.15,-3.07 -1.15,-4.61 0,-1.54 -0.39,-3.07 -1.15,-4.61 0,-0.77 -0.39,-1.16 -1.15,-1.16 0,-0.76 0,-1.53 0,-2.3 0,-0.77 -0.4,-1.16 -1.17,-1.16 0,-0.76 0,-1.53 0,-2.3 -0.76,-1.54 -1.15,-2.69 -1.15,-3.46 0,-0.77 -0.39,-1.93 -1.15,-3.46 -0.78,-1.54 -1.16,-2.69 -1.16,-3.46 0,-0.77 -0.39,-1.93 -1.16,-3.46 -0.76,-0.77 -1.16,-1.54 -1.16,-2.31 0,-0.77 -0.39,-1.54 -1.15,-2.31 -1.54,-3.07 -2.32,-4.61 -2.32,-4.61 -0.76,-0.77 -1.15,-1.15 -1.15,-1.15 0,-0.77 -0.39,-1.54 -1.15,-2.31 -0.78,-0.77 -1.15,-1.54 -1.15,-2.31 -0.78,-0.76 -1.17,-1.53 -1.17,-2.3l-1.15 0c0,0 0.39,0.77 1.15,2.3l0 2.31c0.78,0.77 1.17,2.31 1.17,4.6 0,0.77 0,1.54 0,2.31 0.76,0 1.15,0.77 1.15,2.31 0,2.3 0.39,4.22 1.15,5.75l0 5.76c0,1.54 0,2.69 0,3.46 0.78,0.77 1.15,1.92 1.15,3.46 0,6.91 0.39,12.29 1.17,16.13l0 18.43c0.76,3.84 1.15,9.99 1.15,18.43l0 43.78c-0.78,1.54 -1.15,3.46 -1.15,5.76l0 26.5c-0.78,3.07 -1.17,6.14 -1.17,9.21 0,2.31 0,4.61 0,6.91 0,1.54 -0.36,2.69 -1.15,3.46 0,0.77 0,1.92 0,3.46l0 6.91c-0.76,1.54 -1.15,3.46 -1.15,5.76 0,1.54 -0.39,3.07 -1.15,4.61 0,1.54 -0.4,2.69 -1.17,3.46l0 2.31 -1.15 2.3c0,0 0.78,-0.38 2.32,-1.15l0 -1.15 1.15 -1.16c0.76,-0.76 1.15,-1.15 1.15,-1.15 0,-0.77 0.39,-1.54 1.15,-2.3 0.78,-1.54 1.55,-3.08 2.32,-4.61 0.76,-2.3 1.55,-4.23 2.31,-5.75z"/>
   <path class="fil3" d="M5969.35 3269.42c0,13.82 1.17,24.19 3.47,31.1 3.08,6.14 6.17,11.14 9.25,14.97 3.08,3.07 5.77,6.14 8.09,9.22 3.08,3.07 4.62,8.06 4.62,14.97l-314.39 0c-4.62,0 -8.85,-1.92 -12.71,-5.76 -3.84,-3.84 -5.78,-8.06 -5.78,-12.67 0,4.61 -1.93,8.83 -5.77,12.67 -3.08,3.84 -7.32,5.76 -12.72,5.76l-60.1 0c0,-6.91 1.15,-11.9 3.47,-14.97 3.08,-3.08 6.17,-6.14 9.25,-9.22 3.08,-3.84 5.77,-8.83 8.09,-14.97 3.08,-6.14 4.62,-15.74 4.62,-28.8l0 -281.06c-2.32,-23.81 -13.11,-41.09 -32.38,-51.83 8.48,-5.37 19.27,-8.06 32.38,-8.06l0 -329.45c0,-13.05 -1.54,-22.65 -4.62,-28.79 -2.32,-6.14 -5.01,-10.76 -8.09,-13.82 -3.08,-3.84 -6.17,-7.3 -9.25,-10.37 -2.32,-3.08 -3.47,-8.07 -3.47,-14.98l61.25 0c4.62,0 8.88,1.93 12.72,5.76 3.86,3.07 5.77,7.29 5.77,12.67 0,-12.29 6.17,-18.44 18.5,-18.44l313.23 0c0,6.91 -1.54,11.9 -4.62,14.98 -2.32,3.07 -5.01,6.52 -8.09,10.37 -3.08,3.07 -6.17,8.06 -9.25,14.97 -2.3,6.14 -3.47,16.13 -3.47,29.95l0 153.2c-26.96,0 -47.77,-4.99 -62.41,-14.97 -13.87,-10.76 -24.28,-22.66 -31.21,-35.72 -8.48,-14.59 -13.11,-31.86 -13.87,-51.84l0 -35.71c0,-8.45 -3.07,-15.74 -9.24,-21.88 -6.17,-6.15 -13.48,-9.61 -21.97,-10.37l-83.21 0c-8.49,0.76 -15.8,4.22 -21.97,10.37 -6.16,6.14 -9.24,13.43 -9.24,21.88l0 259.18c0,8.45 3.08,15.74 9.24,21.89 6.17,6.14 13.48,9.21 21.97,9.21l8.09 0c8.47,0 15.42,-3.07 20.8,-9.21 6.17,-6.15 9.24,-13.44 9.24,-21.89l0 -1.15c0.78,-11.52 3.87,-21.5 9.25,-29.95 4.62,-7.68 11.57,-14.59 20.81,-20.73 9.25,-6.14 22.73,-9.22 40.46,-9.22l0 238.45c-17.73,0 -31.21,-3.07 -40.46,-9.22 -9.24,-6.14 -16.19,-13.05 -20.81,-20.73 -5.38,-8.45 -8.47,-18.43 -9.25,-29.95 0,-8.45 -3.07,-15.74 -9.24,-21.88 -5.38,-6.14 -12.33,-9.6 -20.8,-10.37l-8.09 0c-8.49,0.77 -15.8,4.23 -21.97,10.37 -6.16,6.14 -9.24,13.43 -9.24,21.88l0 259.19c0,8.44 3.08,15.74 9.24,21.88 6.17,6.14 13.48,9.22 21.97,9.22l83.21 0c8.49,0 15.8,-3.07 21.97,-9.22 6.17,-6.14 9.24,-13.44 9.24,-21.88l0 -36.86c0.76,-19.2 5.39,-36.1 13.87,-50.69 6.93,-13.05 17.34,-24.96 31.21,-35.71 14.63,-10.76 35.44,-16.13 62.41,-16.13l0 154.36zm-298.2 -387.05c0,-3.84 -0.39,-8.06 -1.15,-12.66 0,-4.61 0,-9.22 0,-13.82l0 -25.34c-0.78,-16.9 -1.15,-33.03 -1.15,-48.39 0,-15.35 -0.39,-29.95 -1.17,-43.77 -0.76,-6.14 -1.15,-12.28 -1.15,-18.44 0,-6.14 -0.4,-11.9 -1.16,-17.28 0,-6.14 -0.39,-11.52 -1.15,-16.12 0,-4.61 0,-8.84 0,-12.67 0,-3.84 -0.39,-7.29 -1.17,-10.37 0,-3.07 0,-5.76 0,-8.06l0 -5.76c-0.76,0 -1.15,0.38 -1.15,1.15l0 4.61c0,2.3 -0.39,4.99 -1.15,8.06 0,3.07 0,6.53 0,10.37 0,3.84 -0.39,8.06 -1.15,12.67 0,4.6 0,9.98 0,16.12 -0.78,5.38 -1.17,11.14 -1.17,17.28 0,6.15 -0.37,12.29 -1.15,18.44 -0.76,13.82 -1.15,28.42 -1.15,43.77 0,15.36 -0.4,31.49 -1.15,48.39l0 25.34c0,4.6 -0.39,9.22 -1.17,13.82 0,4.6 0,8.83 0,12.66l0 107.14c0,6.14 0.39,10.75 1.17,13.82l0 38.01c0,8.44 0,16.89 0,25.34 0.75,7.68 1.15,15.36 1.15,23.04 0,8.44 0,16.12 0,23.03 0.76,6.91 1.15,13.82 1.15,20.73 0.78,6.91 1.15,13.44 1.15,19.59 0,5.37 0.39,11.14 1.17,17.28 0,5.37 0,10.37 0,14.97 0.76,4.61 1.15,8.84 1.15,12.67 0,3.84 0,7.68 0,11.52 0.76,3.07 1.15,5.38 1.15,6.91l0 5.76c0,0.77 0.39,1.16 1.15,1.16l0 -6.92c0,-1.53 0,-3.84 0,-6.91 0.78,-3.84 1.17,-7.68 1.17,-11.52 0,-3.84 0,-8.06 0,-12.67 0.76,-4.61 1.15,-9.6 1.15,-14.97 0.76,-6.14 1.16,-11.9 1.16,-17.28 0,-6.14 0.39,-12.67 1.15,-19.59 0,-6.91 0,-13.82 0,-20.73 0.78,-6.91 1.17,-14.59 1.17,-23.03 0,-7.68 0,-15.36 0,-23.04 0.75,-8.45 1.15,-16.9 1.15,-25.34l0 -25.35c0,-6.14 0.39,-10.37 1.15,-12.67l0 -120.96z"/>
   <path class="fil3" d="M6434.32 3388.06c8.46,1.54 14.26,4.23 17.34,8.07 3.84,3.84 6.53,7.67 8.08,11.52 1.54,4.61 2.32,9.6 2.32,14.97 -24.66,0 -47.77,-3.07 -69.35,-9.21 -21.57,-6.15 -40.85,-16.13 -57.8,-29.95 -16.17,-13.82 -29.28,-31.87 -39.3,-54.14 -9.25,-22.27 -13.87,-49.53 -13.87,-81.79l0 -157.81c0,-9.99 -0.37,-22.27 -1.15,-36.86 -0.76,-14.59 -3.47,-28.42 -8.1,-41.47 -4.62,-13.05 -11.94,-24.19 -21.94,-33.41 -9.25,-9.98 -23.12,-14.97 -41.61,-14.97l-47.4 0c-6.93,1.54 -13.09,5.37 -18.49,11.52 -4.63,5.37 -6.93,11.91 -6.93,19.59l0 275.31c0,13.82 1.15,24.19 3.46,31.1 3.07,6.14 6.16,11.14 9.24,14.97 3.08,3.07 5.79,6.14 8.1,9.22 3.08,3.07 4.62,8.06 4.62,14.97l-61.25 0c-4.63,0 -8.88,-1.92 -12.72,-5.76 -3.86,-3.84 -5.78,-8.06 -5.78,-12.67 0,4.61 -1.93,8.83 -5.79,12.67 -3.08,3.84 -7.32,5.76 -12.7,5.76l-60.1 0c0,-6.91 1.15,-11.9 3.46,-14.97 3.08,-3.08 6.16,-6.14 9.24,-9.22 3.08,-3.84 5.79,-8.83 8.1,-14.97 3.08,-6.14 4.62,-15.74 4.62,-28.8l0 -281.06c-2.3,-23.81 -13.09,-41.09 -32.36,-51.83 8.49,-5.37 19.27,-8.06 32.36,-8.06l0 -329.45c0,-13.05 -1.54,-22.65 -4.62,-28.79 -2.31,-6.14 -5.02,-10.76 -8.1,-13.82 -3.08,-3.84 -6.16,-7.3 -9.24,-10.37 -2.31,-3.08 -3.46,-8.07 -3.46,-14.98l61.25 0c4.63,0 8.86,1.93 12.72,5.76 3.84,3.07 5.78,7.29 5.78,12.67 0,-12.29 6.16,-18.44 18.49,-18.44l108.65 0c24.66,0 47.77,4.61 69.35,13.82 21.57,9.22 40.45,21.89 56.63,38.01 16.19,15.36 28.9,33.79 38.15,55.29 9.25,21.5 14.24,44.16 15.02,67.97l0 74.88c0,32.25 -7.7,61.81 -23.11,88.7 -15.42,26.88 -36.23,48.38 -62.43,64.5 26.2,15.36 47.01,36.86 62.43,64.51 15.41,26.88 23.11,56.44 23.11,88.7l0 153.2c0,16.13 0,32.64 0,49.54 0.76,16.12 2.69,31.1 5.78,44.92 3.07,13.06 7.7,24.2 13.86,33.41 6.17,9.22 14.65,14.98 25.44,17.28zm-105.18 -624.34c-0.78,1.54 -1.15,3.46 -1.15,5.76l0 26.5c-0.78,3.07 -1.17,6.14 -1.17,9.21 0,2.31 0,4.61 0,6.91 0,1.54 -0.37,2.69 -1.15,3.46 0,0.77 0,1.92 0,3.46l0 6.91c-0.76,1.54 -1.15,3.46 -1.15,5.76 0,1.54 -0.4,3.07 -1.15,4.61 0,1.54 -0.39,2.69 -1.17,3.46l0 2.31 -1.15 2.3c0,0 0.78,-0.38 2.32,-1.15l0 -1.15 1.15 -1.16c0.76,-0.76 1.15,-1.15 1.15,-1.15 0,-0.77 0.39,-1.54 1.15,-2.3 0.78,-1.54 1.54,-3.08 2.32,-4.61 0.76,-2.3 1.54,-4.23 2.3,-5.75 0.78,-1.54 1.17,-2.31 1.17,-2.31 0,-0.77 0.37,-1.92 1.15,-3.46 0.76,-1.54 1.15,-2.69 1.15,-3.46 0,-1.54 0.39,-3.07 1.16,-4.61 0.78,-1.53 1.17,-2.69 1.17,-3.46 0,-0.76 0.37,-1.92 1.16,-3.46 0,-1.53 0,-2.69 0,-3.45 0.76,-1.54 1.15,-3.08 1.15,-4.61 0.78,-3.07 1.15,-6.14 1.15,-9.22 0.78,-3.07 1.54,-6.14 2.32,-9.21 0.76,-2.31 1.15,-5.76 1.15,-10.37 0,-1.54 0,-3.07 0,-4.61 0.78,-1.54 1.15,-3.07 1.15,-4.61l0 -40.32c0,-4.61 -0.37,-8.06 -1.15,-10.37l0 -4.6c0,-1.54 -0.39,-2.31 -1.15,-2.31 0,-0.76 0,-1.92 0,-3.46 0,-3.84 -0.78,-9.6 -2.32,-17.28 -0.76,-1.53 -1.15,-3.07 -1.15,-4.61 0,-1.54 -0.39,-3.07 -1.15,-4.61 0,-0.77 -0.4,-1.16 -1.16,-1.16 0,-0.76 0,-1.53 0,-2.3 0,-0.77 -0.39,-1.16 -1.17,-1.16 0,-0.76 0,-1.53 0,-2.3 -0.76,-1.54 -1.16,-2.69 -1.16,-3.46 0,-0.77 -0.39,-1.93 -1.15,-3.46 -0.78,-1.54 -1.15,-2.69 -1.15,-3.46 0,-0.77 -0.39,-1.93 -1.17,-3.46 -0.76,-0.77 -1.15,-1.54 -1.15,-2.31 0,-0.77 -0.39,-1.54 -1.15,-2.31 -1.54,-3.07 -2.32,-4.61 -2.32,-4.61 -0.76,-0.77 -1.15,-1.15 -1.15,-1.15 0,-0.77 -0.39,-1.54 -1.15,-2.31 -0.78,-0.77 -1.15,-1.54 -1.15,-2.31 -0.78,-0.76 -1.17,-1.53 -1.17,-2.3l-1.15 0c0,0 0.39,0.77 1.15,2.3l0 2.31c0.78,0.77 1.17,2.31 1.17,4.6 0,0.77 0,1.54 0,2.31 0.75,0 1.15,0.77 1.15,2.31 0,2.3 0.39,4.22 1.15,5.75l0 5.76c0,1.54 0,2.69 0,3.46 0.78,0.77 1.15,1.92 1.15,3.46 0,6.91 0.39,12.29 1.17,16.13l0 18.43c0.76,3.84 1.15,9.99 1.15,18.43l0 43.78zm-238.1 118.64c0,-3.84 -0.39,-8.06 -1.17,-12.66 0,-4.61 0,-9.22 0,-13.82l0 -25.34c-0.76,-16.9 -1.15,-33.03 -1.15,-48.39 0,-15.35 -0.39,-29.95 -1.15,-43.77 -0.78,-6.14 -1.15,-12.28 -1.15,-18.44 0,-6.14 -0.39,-11.9 -1.17,-17.28 0,-6.14 -0.37,-11.52 -1.15,-16.12 0,-4.61 0,-8.84 0,-12.67 0,-3.84 -0.39,-7.29 -1.15,-10.37 0,-3.07 0,-5.76 0,-8.06l0 -5.76c-0.78,0 -1.16,0.38 -1.16,1.15l0 4.61c0,2.3 -0.39,4.99 -1.17,8.06 0,3.07 0,6.53 0,10.37 0,3.84 -0.37,8.06 -1.16,12.67 0,4.6 0,9.98 0,16.12 -0.75,5.38 -1.15,11.14 -1.15,17.28 0,6.15 -0.39,12.29 -1.15,18.44 -0.78,13.82 -1.17,28.42 -1.17,43.77 0,15.36 -0.37,31.49 -1.15,48.39l0 25.34c0,4.6 -0.39,9.22 -1.15,13.82 0,4.6 0,8.83 0,12.66l0 107.14c0,6.14 0.39,10.75 1.15,13.82l0 38.01c0,8.44 0,16.89 0,25.34 0.78,7.68 1.15,15.36 1.15,23.04 0,8.44 0,16.12 0,23.03 0.78,6.91 1.17,13.82 1.17,20.73 0.76,6.91 1.15,13.44 1.15,19.59 0,5.37 0.4,11.14 1.15,17.28 0,5.37 0,10.37 0,14.97 0.78,4.61 1.16,8.84 1.16,12.67 0,3.84 0,7.68 0,11.52 0.78,3.07 1.17,5.38 1.17,6.91l0 5.76c0,0.77 0.37,1.16 1.16,1.16l0 -6.92c0,-1.53 0,-3.84 0,-6.91 0.76,-3.84 1.15,-7.68 1.15,-11.52 0,-3.84 0,-8.06 0,-12.67 0.78,-4.61 1.15,-9.6 1.15,-14.97 0.78,-6.14 1.17,-11.9 1.17,-17.28 0,-6.14 0.36,-12.67 1.15,-19.59 0,-6.91 0,-13.82 0,-20.73 0.76,-6.91 1.15,-14.59 1.15,-23.03 0,-7.68 0,-15.36 0,-23.04 0.78,-8.45 1.15,-16.9 1.15,-25.34l0 -25.35c0,-6.14 0.39,-10.37 1.17,-12.67l0 -120.96zm190.69 -169.33c0,-9.98 -0.37,-22.27 -1.15,-36.86 -0.76,-14.59 -3.47,-28.42 -8.1,-41.47 -4.62,-13.06 -11.94,-24.19 -21.94,-33.41 -9.25,-9.98 -23.12,-14.97 -41.61,-14.97l-41.63 0c-8.46,0.76 -15.78,4.22 -21.94,10.37 -6.17,6.14 -9.25,13.43 -9.25,21.88l0 259.18c0,8.45 3.08,15.74 9.25,21.89 6.16,6.14 13.48,9.21 21.94,9.21l41.63 0c18.49,0 32.36,-4.6 41.61,-13.82 10,-9.22 17.32,-20.34 21.94,-33.4 4.63,-13.83 7.34,-27.65 8.1,-41.48 0.78,-14.58 1.15,-26.88 1.15,-36.86l0 -70.27zm77.44 631.25c0,0 -0.36,-0.38 -1.15,-1.15l-1.15 -1.15c-0.78,-1.54 -1.55,-3.07 -2.32,-4.61 0,-1.53 -0.76,-3.07 -2.3,-4.6 -0.78,-2.31 -1.55,-4.61 -2.32,-6.91 -0.76,-3.07 -1.55,-6.52 -2.31,-10.37 -1.54,-7.68 -2.32,-14.97 -2.32,-21.88 -0.76,-3.84 -1.15,-7.68 -1.15,-11.53 0,-4.6 0,-9.6 0,-14.97l0 -61.05c0,-5.37 0,-10.75 0,-16.12 0,-5.37 0.39,-11.14 1.15,-17.28 0,-5.38 0,-10.75 0,-16.13 0,-5.37 -0.37,-10.75 -1.15,-16.13l0 -16.12c0,-7.68 -0.39,-13.06 -1.15,-16.13 0,-5.37 -0.39,-10.37 -1.15,-14.97 0,-5.38 -0.39,-10.37 -1.17,-14.98 -1.54,-10.75 -3.08,-19.96 -4.62,-27.64 -0.76,-3.84 -1.55,-7.29 -2.31,-10.37 -0.78,-3.84 -1.93,-7.68 -3.47,-11.52 -1.54,-3.84 -2.69,-6.91 -3.47,-9.22 -0.76,-2.3 -1.91,-4.6 -3.45,-6.91 -1.55,-2.31 -2.72,-4.23 -3.48,-5.75 -0.78,-1.54 -1.54,-3.08 -2.32,-4.61 -0.75,0 -1.54,-0.38 -2.3,-1.15 -0.78,0 -1.15,-0.38 -1.15,-1.15l1.15 1.15c0,0.77 0.39,1.54 1.15,2.31 0,0.76 0,1.53 0,2.3 0.78,0 1.15,0.77 1.15,2.31 0.78,0.77 1.17,1.54 1.17,2.3 0,0.77 0.37,1.93 1.15,3.46 0.76,3.07 1.93,8.44 3.48,16.12 0.75,3.84 1.15,7.68 1.15,11.53 0.76,3.84 1.54,7.67 2.3,11.52 0,3.84 0,8.06 0,12.67 0.78,3.84 1.17,8.44 1.17,13.82l0 142.84c0,3.07 0,5.76 0,8.06 0.76,2.31 1.15,4.99 1.15,8.07 0,5.37 0,10.75 0,16.13 0.76,4.61 1.54,9.21 2.3,13.82 0.78,4.61 1.17,9.22 1.17,13.82 0.76,4.61 1.55,8.84 2.3,12.67 1.54,4.61 2.69,8.83 3.48,12.67 0.76,3.07 1.93,6.52 3.47,10.37 1.54,3.84 2.69,6.91 3.45,9.22 0.78,2.3 1.93,4.6 3.47,6.9l2.32 2.31c0.76,0.77 1.16,1.54 1.16,2.31 0,0 0.39,0.38 1.15,1.15l4.62 4.61 1.15 0z"/>
   <path class="fil1" d="M6759.4 2954.61c0,34.08 -27.72,61.71 -61.92,61.71 -34.19,0 -61.92,-27.63 -61.92,-61.71 0,-34.08 27.73,-61.71 61.92,-61.71 34.19,0 61.92,27.63 61.92,61.71z"/>
   <path class="fil1" d="M2817.27 2954.61c0,34.08 -27.72,61.71 -61.92,61.71 -34.19,0 -61.92,-27.63 -61.92,-61.71 0,-34.08 27.73,-61.71 61.92,-61.71 34.19,0 61.92,27.63 61.92,61.71z"/>
  </g>
 </g>
</svg>
