<?xml version="1.0" encoding="UTF-8"?>
<!DOCTYPE svg PUBLIC "-//W3C//DTD SVG 1.1//EN" "http://www.w3.org/Graphics/SVG/1.1/DTD/svg11.dtd">
<!-- Creator: CorelDRAW 2020 (64 Bit) -->
<svg xmlns="http://www.w3.org/2000/svg" xml:space="preserve" width="400mm" height="250mm" version="1.1" style="shape-rendering:geometricPrecision; text-rendering:geometricPrecision; image-rendering:optimizeQuality; fill-rule:evenodd; clip-rule:evenodd"
viewBox="0 0 27038.66 16899.17"
 xmlns:xlink="http://www.w3.org/1999/xlink"
 xmlns:xodm="http://www.corel.com/coreldraw/odm/2003">
 <defs>
  <style type="text/css">
   <![CDATA[
    .fil0 {fill:none}
    .fil1 {fill:#6D0AD6}
    .fil3 {fill:#8BE563}
    .fil2 {fill:#F18001}
    .fil4 {fill:#727376;fill-rule:nonzero}
   ]]>
  </style>
 </defs>
 <g id="Camada_x0020_1">
  <metadata id="CorelCorpID_0Corel-Layer"/>
  <path class="fil0" d="M-0 0l26999.91 0c21.32,0 38.75,17.43 38.75,38.75l0 16821.66c0,21.32 -17.43,38.75 -38.75,38.75l-26999.91 0 0 -16899.17z"/>
  <path class="fil1" d="M9868.41 9249.91c-339.17,1988.11 -2966.71,1444.68 -2541.55,-772.26 367.5,-1916.3 2909.51,-1384.58 2541.55,772.26zm-3827.8 -75.15c136.93,1462.33 1196.87,2653.59 2847.79,2478.44 1400.26,-148.57 2402.33,-1497.16 2254.34,-3079.68 -131.2,-1403 -1247.29,-2663.09 -2838.69,-2452.56 -1405.04,185.9 -2412.06,1466.44 -2263.43,3053.79z"/>
  <path class="fil2" d="M17901.78 8874.16c76.97,-150.82 787.43,-912.87 957.61,-1111.88 646.11,-755.54 740.35,-663.77 207.77,-1178.35 -95.96,-92.71 -399.13,-459.6 -634.77,-338.95 -152.55,78.1 -1264.34,1523.53 -1429.83,1612 -267.71,-228.54 -1311.1,-1579.38 -1484.69,-1629.67 -224.68,-65.09 -471.75,251.32 -605.8,367.81 -592.3,514.65 -350.12,504.6 244.31,1194.51l951.84 1084.52c-71.97,149.75 -844.06,983.56 -1027.42,1197.01 -602.02,700.81 -899.54,759.44 -322.61,1235.35 148.39,122.41 432.06,508 703.72,348.66 157.51,-92.38 1348.47,-1624.5 1540.64,-1744.59l166.71 150.85c51.69,63.61 78.16,99.98 115.94,145.13 1444.1,1725.84 1178.97,1738.07 1947.87,1085.29 208.6,-177.1 468.57,-361.74 192.88,-668.66 -209.92,-233.7 -1461.01,-1611.17 -1524.17,-1749.04z"/>
  <path class="fil3" d="M11677.05 5041.56l-0.01 3870.18c-0.03,457.66 160.54,638.84 628.71,638.83l2254.48 -0.02c459.89,-0.01 366.29,-260.42 366.61,-939.4 0.3,-657.3 -647.98,-288.34 -1891.03,-390.26 -54.17,-331 -17.01,-2381.57 -14.57,-2991.57 2.64,-658.79 48.51,-598.75 -940.93,-598.81 -348.53,0 -403.24,72.21 -403.25,411.06z"/>
  <path class="fil4" d="M6720.13 12813.39c-35.54,20.08 -86.9,30.05 -153.9,30.05 -78.41,0 -141.84,-23.07 -190.32,-69.56 -48.47,-46.33 -72.79,-106.1 -72.79,-179.48 0,-84.67 26.02,-151.26 77.88,-200.07 52.06,-48.82 121.61,-73.22 208.68,-73.22 60.04,0 103.57,7.8 130.44,23.23l0 130.5c-32.8,-24.07 -69.56,-36.02 -110.03,-36.02 -45.25,0 -80.95,12.77 -107.49,38.67 -26.35,25.73 -39.63,61.28 -39.63,106.77 0,43.99 12.76,78.7 37.93,103.76 25.18,25.24 60.05,37.69 104.08,37.69 39.3,0 77.57,-11.94 115.14,-36.03l0 123.7zm277.08 17.93l-157.32 0 0 -737.36 157.32 0 0 737.36zm392.2 12.12c-85.02,0 -151.86,-23.25 -200.5,-69.74 -48.65,-46.49 -72.96,-109.74 -72.96,-189.43 0,-82.35 25.17,-146.95 75.68,-193.43 50.51,-46.49 118.89,-69.73 204.76,-69.73 84.71,0 151.19,23.23 199.32,69.73 48.16,46.49 72.28,108.09 72.28,184.63 0,82.68 -24.82,148.1 -74.48,196.08 -49.67,47.98 -117.7,71.89 -204.1,71.89zm4.09 -404.61c-37.25,0 -66.15,12.44 -86.73,37.35 -20.58,25.08 -30.96,60.43 -30.96,106.1 0,95.63 39.63,143.45 118.71,143.45 75.34,0 113.1,-49.15 113.1,-147.27 0,-93.15 -38.1,-139.62 -114.12,-139.62zm885.94 392.49l-156.99 0 0 -276.77c0,-77.21 -28.21,-115.73 -84.69,-115.73 -27.2,0 -49.65,10.13 -67.16,30.54 -17.7,20.43 -26.54,46.49 -26.54,77.87l0 284.08 -157.32 0 0 -498.11 157.32 0 0 78.87 2.03 0c37.59,-60.77 92.19,-90.98 163.97,-90.98 112.91,0 169.38,68.39 169.38,205.21l0 305zm599.53 -205.21l-332.83 0c5.27,72.22 52.06,108.41 139.99,108.41 56.13,0 105.44,-12.94 147.96,-38.85l0 110.91c-47.11,24.58 -108.33,36.85 -183.84,36.85 -82.33,0 -146.27,-22.25 -191.85,-66.91 -45.39,-44.5 -68.19,-106.76 -68.19,-186.46 0,-82.68 24.49,-148.27 73.8,-196.58 49.17,-48.31 109.53,-72.38 181.31,-72.38 74.33,0 131.98,21.58 172.63,64.58 40.65,43.17 61.04,101.78 61.04,175.66l0 64.76zm-145.9 -94.47c0,-71.24 -29.61,-106.92 -88.78,-106.92 -25.18,0 -47.11,10.13 -65.47,30.54 -18.54,20.43 -29.59,46 -33.68,76.38l187.93 0z"/>
 </g>
</svg>
