<?xml version="1.0" encoding="UTF-8"?>
<!DOCTYPE svg PUBLIC "-//W3C//DTD SVG 1.1//EN" "http://www.w3.org/Graphics/SVG/1.1/DTD/svg11.dtd">
<!-- Creator: CorelDRAW 2020 (64 Bit) -->
<svg xmlns="http://www.w3.org/2000/svg" xml:space="preserve" width="251.006mm" height="123.642mm" version="1.1" style="shape-rendering:geometricPrecision; text-rendering:geometricPrecision; image-rendering:optimizeQuality; fill-rule:evenodd; clip-rule:evenodd"
viewBox="0 0 11495.8 5662.65"
 xmlns:xlink="http://www.w3.org/1999/xlink"
 xmlns:xodm="http://www.corel.com/coreldraw/odm/2003">
 <defs>
  <style type="text/css">
   <![CDATA[
    .fil0 {fill:#6C4FBB}
    .fil1 {fill:#6C4FBB}
   ]]>
  </style>
 </defs>
 <g id="Camada_x0020_1">
  <metadata id="CorelCorpID_0Corel-Layer"/>
  <g id="_2587485939728">
   <path class="fil0" d="M6410.85 432.86c-145.88,-15.48 -275.88,-75.92 -350.42,24.58 -66.3,89.4 -120.78,164.14 -184.37,251.86 -63.16,87.14 -123.25,165.23 -185.39,250.72 -60.75,83.57 -146.01,184.74 -187.67,261.2 -159.79,-19.78 -559.15,-400.81 -659.71,-319.11 -121.6,87.88 108.53,107.93 -5.89,266.59 -80.44,-36.64 -203.92,-110.22 -272.45,-9.22 -92.19,135.86 64.24,212.56 110.24,240.62 400.77,244.49 497.89,373.84 810.38,178.08 141.51,-88.65 145.78,61.79 288.68,-16.37 134.99,-73.84 119.07,-86.05 257.87,0.03 62.1,38.51 193.49,130.15 263.05,143.04l718.14 -973.12c43.2,-54.57 77.71,-89.33 73.54,-180.92 -77.76,-33.26 -163.14,-25.69 -243.82,-56.28 4.73,-68.53 134.84,-217.69 184.5,-281.71 136.24,-175.66 43.46,-154.32 -156.13,-185.27 -51.4,-7.97 -162.22,-30.53 -206.46,-27.29 -78.27,5.73 -79.57,46.87 -127.99,109.64 -142.19,184.37 -185.45,205.84 -126.09,322.9z"/>
   <path class="fil0" d="M4403.82 3207.63c80.82,1.09 94.04,-58.42 228.9,-171.18l316.31 -297.09c41.71,-39.86 71.75,-57.87 105.37,-105.71 31.09,-44.24 52.93,-102.34 45.53,-167.75 -8.54,-75.49 -38.62,-78.68 -102.38,-111.68 -113.09,-58.53 -300.27,-274.95 -423.91,203.21 -38.49,148.87 -166.52,527.1 -169.81,650.2z"/>
   <path class="fil0" d="M4848.79 2182.79c83.26,41.48 181.85,131.75 295.59,162.14 108.17,-75.45 171.48,-155.78 203.64,-176.39 75.3,-48.27 197.76,3.85 322.82,-36.89 -25.82,-63.83 -108.09,-94.72 -201.36,-152.51 -74.75,-46.32 -142.4,-85.48 -221.22,-134.39 -74.81,-46.42 -372.61,-241.49 -441.08,-253.68 -4.71,163.26 87.73,164.83 104.28,265.54 9.36,56.93 -57.33,234.09 -62.68,326.18z"/>
  </g>
  <g id="_2587485942032">
   <path class="fil1" d="M9642.27 5198.36c157.46,-5.15 315.22,-1.22 468.2,-1.32 256.43,-0.17 259.85,-53.03 235.99,230.93l-701.63 7.29 -2.57 -236.9zm-220.76 -587.48l1.86 121.31c136.78,35.16 723.86,6.44 912.88,10.95l4.59 240.33 -902.84 8.84c-29,138.96 -12.73,284.91 -12.24,426.41 0,157.38 88.3,238.32 248.47,238.32 827.07,0 893.24,84.2 892.89,-399.89 -0.11,-155.29 31.27,-505.93 -30.14,-620 -85.24,-158.35 -330.05,-108.41 -539.62,-107.4l-486.65 3.38c-78.06,2.04 -89.22,-1.87 -89.22,77.75z"/>
   <path class="fil1" d="M4840.68 4738.97l694.92 4.63 -4.45 238.09 -694.22 0.59 3.75 -243.31zm-228.18 33.48c0,866.87 -80.11,886.07 457.05,876.87 200.72,-3.44 499.2,12.52 686.95,-13l3.58 -195.58 -919.08 -6.11 1.23 -237.84c168.84,0.32 335.36,-2.53 501.99,-4.8 501.5,-6.83 416.31,100.32 416.31,-403.38 0,-169.76 -81.58,-264.26 -254.74,-264.26l-630.12 0c-171.06,0 -263.16,73.15 -263.16,248.1z"/>
   <path class="fil1" d="M8287.79 4980.77c-28.65,-24.05 -12.17,62.19 -29.2,-46.76 0,-72.46 -11.34,-137.46 19.32,-207.4l708.15 6.94c31.83,68.9 30.6,186.12 0.83,256.34 -21.52,4.02 -674.38,27.77 -699.11,-9.12zm-226.17 -208.33l0 646.27c0,238.09 175.77,234.57 336.22,233.63l800.68 -9.31 -0.13 -200.81 -914.93 -5.18 10.21 -220.95c1.29,-3.38 3.74,-8.81 6.49,-12.68l897.03 -13.56 4.89 -417.42c0,-178.62 -99.46,-248 -271.07,-248l-597.8 0c-180.4,0 -271.6,77.57 -271.6,248z"/>
   <path class="fil1" d="M1127.76 4739.52l696.89 1.53 -4.39 693.79 -696.9 -1.67 4.41 -693.65zm-228.36 32.92l0 630.12c0,186.73 104.45,254.48 276.34,254.48l597.8 0c173,0 274.12,-78.38 274.12,-254.48l0 -613.96c0,-173.45 -82.58,-264.26 -257.96,-264.26l-630.12 0c-168.25,0 -260.18,80.81 -260.18,248.1z"/>
   <path class="fil1" d="M6854.89 4788.6c0,516.84 81.23,385.44 762.51,409.93l3.53 234.34 -759.71 2.2 -0.31 206.96c206.05,-0.1 411.56,5.58 616,7.77 388.31,4.15 367.97,-93.21 367.97,-408.81 0,-310.34 -260.98,-259.83 -561.87,-258.87 -238.93,0.76 -218.28,47.98 -206.11,-236.74l764.4 -7.23c17.53,-254.85 28.4,-207.39 -283.6,-208.45 -372.69,-1.27 -702.8,-87.28 -702.8,258.91z"/>
   <path class="fil1" d="M3476.56 5655.19c283.12,13.3 215.66,35.65 215.66,-451.22l100.87 -6.39c71.7,28.1 249.38,227.99 315.42,293.53 180.04,178.67 96.73,172.61 441.35,164.89 -29.59,-69.44 -328.53,-356.95 -409.98,-438.6 -28.39,-28.46 -44.45,-44.32 -72.91,-72.39l-67.21 -81.74 492.92 -536.71c-371.33,-14.19 -237.07,-33.41 -599.35,329.61 -78.61,78.78 -78.19,130.77 -194.78,122.77l-8.29 -451.98 -209.66 -2.52c-22.58,70.05 -20.6,1024.72 -4.03,1130.74z"/>
   <path class="fil1" d="M2409.99 5641.29c133.22,14.77 701.58,12.13 819.06,-8.31l19.42 -84.66c0.49,-45.64 0.95,-59.54 -14.09,-99.97l-741.6 -9.43c-17.93,-75.69 -17.69,-478.88 -13.21,-602.68 2.33,-64.27 4.35,-60.3 26.57,-84.05l744.65 -1.06c19.65,-69.64 17.07,-148.09 2.73,-215.35l-339.67 -9.86c-342.6,38.57 -651.67,-137.61 -649.66,310.89 0.72,161.57 0.59,323.44 0.11,485.02 -0.46,153.69 12.07,283.84 145.7,319.47z"/>
   <path class="fil1" d="M6081.83 4521.85l-159.38 5.03 1.96 209.89 160.38 4.14c22.78,425.79 -109.26,877.08 195.53,907.75 90.8,9.14 283.4,6.32 360.52,-13.52 27.4,-49.49 18.93,-134.76 11.84,-197.34l-346.02 -5.1 -1.53 -687.52 384.38 -14.84 4.31 -194.77 -386.12 -13.4 -3.49 -322.67c-122.37,-0.49 -103.02,24.15 -170.27,102.26 -78.46,91.14 -32.18,86.73 -52.11,220.1z"/>
   <path class="fil1" d="M10891.72 4521.87l-155.9 1.34 -6.49 208.36 163.62 9.87c3.92,196.86 -22.37,558.19 5.18,725.12 39.17,237.3 338.8,192.98 564.65,170.41l6.06 -199.9 -351.19 -6.54c-10.16,-95.2 -14.13,-626.63 5.78,-693.76l371.3 -7.47 1.07 -198.51c-329.23,-51.3 -387.6,103.02 -382.7,-145.53 1.22,-62.19 5.2,-126.75 -7.18,-187.01 -106.95,-8.53 -103.02,31.3 -161.73,100.21 -73.78,86.61 -47.68,87.04 -52.48,223.4z"/>
   <path class="fil1" d="M-0 4772.44l0 807.84c0,95.64 19.65,80.25 214.83,74.66l6.57 -911.09 514.75 -2.82 4.87 -210.55 -470.07 -6.15c-172.87,0 -270.95,80.33 -270.95,248.1z"/>
  </g>
 </g>
</svg>
