<?xml version="1.0" encoding="UTF-8"?>
<!DOCTYPE svg PUBLIC "-//W3C//DTD SVG 1.1//EN" "http://www.w3.org/Graphics/SVG/1.1/DTD/svg11.dtd">
<!-- Creator: CorelDRAW 2020 (64 Bit) -->
<svg xmlns="http://www.w3.org/2000/svg" xml:space="preserve" width="219.48mm" height="168.838mm" version="1.1" style="shape-rendering:geometricPrecision; text-rendering:geometricPrecision; image-rendering:optimizeQuality; fill-rule:evenodd; clip-rule:evenodd"
viewBox="0 0 9746.36 7497.55"
 xmlns:xlink="http://www.w3.org/1999/xlink"
 xmlns:xodm="http://www.corel.com/coreldraw/odm/2003">
 <defs>
  <style type="text/css">
   <![CDATA[
    .str0 {stroke:#6936BA;stroke-width:8.88;stroke-miterlimit:22.9256}
    .str1 {stroke:#6936BA;stroke-width:3.38;stroke-miterlimit:22.9256}
    .str2 {stroke:#8844EE;stroke-width:3.38;stroke-miterlimit:22.9256}
    .fil4 {fill:#373435}
    .fil0 {fill:black}
    .fil3 {fill:#6839B5}
    .fil1 {fill:#6936BA}
    .fil2 {fill:#8844EE}
    .fil5 {fill:#AA88FF}
   ]]>
  </style>
 </defs>
 <g id="Camada_x0020_1">
  <metadata id="CorelCorpID_0Corel-Layer"/>
  <g id="_2587288135920">
   <path class="fil0" d="M4671.61 4104.61c-22.7,-46.44 -49.81,-104.76 -77.2,-156.25 -29.31,-55.1 -41.64,-99.61 -63,-163.67 -66.36,-199.09 -60.14,-154.11 -17.19,-368.83 19.93,-99.68 134.62,-727.37 160.22,-765.37 61.65,3.81 143.06,83.59 198.61,83.59 55.55,0 136.96,-79.78 198.62,-83.59 25.6,37.99 140.29,665.69 160.22,765.37 42.95,214.72 49.17,169.74 -17.19,368.83 -22.9,68.71 -34.61,109.17 -66.23,169.83 -26.45,50.73 -52.04,105.21 -73.96,150.09 -74.51,1.41 -83.11,-13.66 -124.72,29.95 -21.32,22.33 -41.49,50.24 -76.73,65.15 -38.56,-16.32 -57.96,-46.77 -81.22,-70.08 -37.28,-37.33 -54.66,-23.79 -120.23,-25.03zm562.78 -1616.81c-0.28,-47.57 42.34,-189.26 56.21,-244.75 10.04,-40.17 18.73,-81.67 29.48,-121.8 14.4,-53.73 27.67,-43.3 85.27,-65.91 69.98,-27.47 380.79,-165.63 429.47,-159.51 19.59,220.75 -2.18,220.02 -88.45,349.43 -35.38,53.06 -72.78,106.7 -104.34,156.97 -100.6,1.77 -97.43,4.24 -182.51,25.66 0,49 7.73,119 -6.69,157.33 -27.75,7.88 -185.15,-73.31 -218.44,-97.41zm-1326.68 -424.91c-0.67,-50.05 -4.06,-119.34 4.64,-166.94 48.44,-6.34 364.13,134.57 435.22,162.08 61.59,23.84 65.26,9.42 80.2,70.92 17.66,72.68 84.2,319.11 83.96,358.86 -33.29,24.11 -190.69,105.29 -218.44,97.41 -14.42,-38.33 -6.69,-108.33 -6.69,-157.33 -85.08,-21.42 -81.91,-23.89 -182.51,-25.66 -43.43,-69.17 -94.3,-142.03 -142.17,-213.72 -32.25,-48.3 -53.31,-58.99 -54.21,-125.62zm-143.94 -514.14c-11.87,34.18 -18.64,895.49 7.83,962.37 140.88,355.98 118.69,349.17 325.35,658.01 75.74,113.2 202.17,552.53 259.45,724.37 14.09,42.28 45.4,152.79 64.94,180.9 20.64,29.67 91.78,93.16 122.3,123.67 132.2,132.2 122.22,154.18 215.49,153.31l237.52 0.18c59.6,0.07 58.4,-3.75 87.93,-34.93 248.61,-262.51 211.88,-143.34 307.5,-430.23 50.98,-152.95 192.13,-620.29 260.88,-722.94 180.98,-270.22 204.37,-337.62 324.28,-659.05 17.67,-47.37 22.82,-904.69 5.11,-955.68 -93.67,-15.01 -599.08,-101.36 -645.62,-82.22l-230.4 138.4c-287.79,172.4 -178.43,172.35 -472.47,-3.53 -40.99,-24.52 -199.43,-127.5 -230.76,-137.38 -36.36,-11.45 -555.11,71.24 -639.33,84.73z"/>
   <path class="fil1 str0" d="M4715.74 4393.02l314.55 -3.23 -153.24 386.42 -161.32 -383.19zm204.32 396c20.64,-74.24 134.69,-381.67 190.85,-436.61l212.87 -212.72c57.67,-58.91 367.94,-181.68 434.03,-191.43 -64.38,79.24 -402.25,579.95 -437.31,604.25l-400.44 236.51zm-931.75 -840.76c52.43,7.74 230.06,87.78 294.42,113.5 141.78,56.69 117.35,55.93 243.51,182.09 121.39,121.39 125.92,102.9 179.39,236.75 38.51,96.39 94.19,214.04 120.43,308.42l-394.59 -232.9c-36.8,-23.12 -299.51,-408.56 -356.03,-485.74 -27.63,-37.73 -60.37,-89.19 -87.13,-122.12zm1512.27 49.67c65.94,-39.4 418.8,-329.29 481.91,-357.14 -22.41,37.53 -159.55,225 -180.75,239.18 -20.84,13.94 -277.28,113.53 -301.16,117.96zm-1737.05 -357.06l472 348.41c-34.81,-3.1 -277.42,-98.1 -296.77,-113.18 -16.55,-12.9 -70.19,-90.19 -86.62,-112.08l-88.62 -123.15zm1624.42 384.51l250.63 -756.33c42.26,14.79 386.23,222.97 422.67,252.24l-673.29 504.09zm-1703.15 -504.15c37.63,-29.93 379.73,-237.13 425.33,-253.04l249 757.06 -674.33 -504.02zm2404.88 -35.58l-428.86 -257.07c27.16,-52.14 75.45,-116.97 108.23,-166.14 66.61,-99.93 33.86,-84.52 157.94,-125.77 115.35,-38.36 313.08,-117.82 422.64,-137.74l-259.95 686.73zm-2693.22 -686.73c109.56,19.92 307.3,99.37 422.64,137.74 122.03,40.57 89.83,23.59 154.15,120.09 33.89,50.84 84.02,118.06 110.18,168.77l-426.87 260.4c-29.57,-47.69 -229.27,-595.94 -260.11,-687zm2461.16 117.7c62.14,-210.61 170.02,-339.37 169.38,-532.84 -0.74,-228.13 -8.74,-476.38 1.27,-702.34l332.77 1069.49 -503.43 165.69zm-2143.31 -1236.26c13.53,227.04 5.52,475.28 4.78,703.42 -0.63,193.47 107.24,322.24 170.27,530.18l-500.69 -163.57 325.64 -1070.03zm49.45 -131.61c84.22,-13.5 602.97,-96.18 639.33,-84.73 31.33,9.87 189.77,112.86 230.76,137.38 294.04,175.88 184.68,175.93 472.47,3.53l230.4 -138.4c46.53,-19.13 551.94,67.21 645.62,82.22 17.71,50.99 12.57,908.31 -5.11,955.68 -119.91,321.42 -143.3,388.82 -324.28,659.05 -68.75,102.65 -209.9,569.99 -260.88,722.94 -95.63,286.89 -58.89,167.71 -307.5,430.23 -29.53,31.18 -28.32,34.99 -87.93,34.93l-237.52 -0.18c-93.27,0.87 -83.29,-21.1 -215.49,-153.31 -30.52,-30.52 -101.66,-94 -122.3,-123.67 -19.54,-28.1 -50.85,-138.62 -64.94,-180.9 -57.28,-171.84 -183.71,-611.18 -259.45,-724.37 -206.66,-308.85 -184.47,-302.03 -325.35,-658.01 -26.47,-66.88 -19.71,-928.19 -7.83,-962.37zm2536.46 -577.9l160.49 421.1c53.82,143.59 102.38,285.3 156.52,429.85 42.69,113.98 31.08,93.05 -7.44,208.51 -41.26,123.64 -193.02,607.16 -222.46,656.21l-343.13 -1105.54c-22.23,-75.29 34.14,-146.35 65.45,-211.41 32.59,-67.72 63.59,-131.95 95.47,-198.34 28.74,-59.85 77.92,-140.92 95.11,-200.37zm-2941.43 1715.66c-36.48,-60.77 -116.46,-338.22 -146.8,-429.22 -25.05,-75.13 -48.24,-144.73 -73.3,-219.85 -39.39,-118.11 -53.35,-99.4 -9.81,-215.64l232.18 -637.92c13.06,-34.86 24.37,-68.1 37.83,-104.04l46.99 -108.98 187.5 392.32c98.23,203.98 97.52,136.71 1.3,434.76 -47.14,146.01 -91.35,292.71 -135.59,441.53 -40.54,136.4 -90.11,325.96 -140.31,447.06zm1514.26 -2068.79l1059.28 883.84c-99.91,-11.66 -558.68,-97.82 -613.11,-71.51 -85.47,41.32 -336.38,214.95 -446.17,266.23 -110.79,-51.74 -361.5,-225.3 -446.17,-266.23 -54.42,-26.31 -513.19,59.86 -613.11,71.51l1059.27 -883.84zm-492.41 -307.08c519.21,-103.45 465.61,-103.45 984.82,0 -27.36,27.62 -193.92,103.69 -242.95,128.21 -39.98,19.99 -222.18,118.2 -249.46,118.2 -25.43,0 -313.16,-150.05 -375.56,-181.25 -40.56,-20.28 -88.5,-36.53 -116.85,-65.16zm1532.78 578.81c39.21,-21.24 279.07,-303.28 344.78,-373.7l252.84 -286.76c22.33,-28.1 59.1,-70.42 85.8,-87.67 -9.98,40.03 -273.76,688.81 -283.54,701.53 -29.79,38.73 -20.17,-30.45 -53.95,51.81 -43.23,105.29 -238.35,571.61 -260.81,598.2l-274.21 -224.96c-210.27,-178.89 -637.9,-515.61 -810.83,-678.29l529.4 -259.07c18.28,32.76 72.11,95.8 102.46,121.94 -25.21,49.75 -19.5,-8.87 -28.68,52.32 65.42,66.65 330.04,348.3 396.74,384.66zm-2165.86 603.41c-23.29,-27.58 -186.2,-421.6 -224.58,-511.17 -96.7,-225.7 -44.7,-79.73 -90.17,-138.84 -9.78,-12.71 -273.56,-661.5 -283.54,-701.53 28.95,18.71 66.56,63.58 89.99,93.08l423.54 474.68c41.1,42.19 121.12,153.96 169.88,180.37 66.7,-36.36 331.33,-318.01 396.74,-384.66 -9.17,-61.19 -3.46,-2.57 -28.68,-52.32 30.34,-26.14 84.18,-89.17 104.55,-126.13l527.47 262.95c-82.56,77.84 -177.4,152.46 -268.32,227.78l-680.97 567.48c-31.3,25.93 -106.43,93.8 -135.91,108.32zm2831.22 -1411.16l-665.36 751.85c-24.96,-20.05 -281.64,-325.07 -295.4,-354.96l960.76 -396.88zm-3332.85 99.01c-27.43,-28.16 -63.51,-67.28 -77.4,-101.93l957.82 403.95c-12.04,25.75 -268.72,330.77 -293.67,350.82l-586.75 -652.84zm920.16 266.03c-113.27,-21.06 -1034.25,-451.59 -1104.92,-442.33 -9.77,46.1 221.5,574.24 257.27,661.44 98.88,241.04 112.78,210.85 67.67,335.04l-246.83 680.04c-87.13,236.04 -95.2,195.49 -45.48,344.6 76.67,229.92 153.19,457.93 229.37,688 74.29,224.39 167.34,449.53 251,675.98 68.03,184.14 53.51,141.39 168.64,294.82l584.25 805.99c46.48,67.32 44.79,75.7 117.6,118.73 70.87,41.88 404.52,249.94 428.39,249.94 24.71,0 249.06,-142.43 292.42,-168.37 160.5,-96.04 171.28,-82.29 257.41,-205.94 129.87,-186.44 259.18,-358.91 386.07,-540.82 86.84,-124.5 224.69,-288.87 299.64,-400.14 32.95,-48.92 291.25,-760.46 314.33,-830.18 77.02,-232.61 153.86,-461.78 231.74,-695.09 31.47,-94.27 45.02,-84.37 10.55,-178.29l-307.75 -846.17c-37.11,-100.19 -33.28,-73.93 7.55,-173.15 48.5,-117.84 326.11,-770.23 319.92,-816.42 -70.67,-9.25 -991.65,421.28 -1104.92,442.33 -19.05,-36.42 -76.7,-100 -107.96,-137.22 -36.04,-42.91 -125.72,-42 -185.62,-51.99 -538.58,-89.76 -288.19,-89.76 -826.77,0 -70.2,11.7 -152.24,10.6 -189.65,57.45 -32,40.08 -82.93,91.61 -103.92,131.75z"/>
   <path class="fil1" d="M3813.79 1501.56c99.91,-11.66 558.68,-97.82 613.11,-71.51 84.67,40.93 335.38,214.48 446.17,266.23 109.8,-51.28 360.7,-224.91 446.17,-266.23 54.42,-26.31 513.19,59.86 613.11,71.51l-1059.28 -883.84 -1059.27 883.84z"/>
   <path class="fil2" d="M3747.57 1492.86c29.48,-14.52 104.61,-82.38 135.91,-108.32l680.97 -567.48c90.92,-75.33 185.76,-149.94 268.32,-227.78l-527.47 -262.95c-20.37,36.96 -74.2,99.99 -104.55,126.13 25.21,49.75 19.5,-8.87 28.68,52.32 -65.42,66.65 -330.04,348.3 -396.74,384.66 -48.76,-26.41 -128.78,-138.18 -169.88,-180.37l-423.54 -474.68c-23.43,-29.5 -61.04,-74.37 -89.99,-93.08 9.98,40.03 273.76,688.81 283.54,701.53 45.47,59.11 -6.53,-86.86 90.17,138.84 38.38,89.57 201.29,483.59 224.58,511.17z"/>
   <path class="fil2" d="M5913.43 889.45c-66.7,-36.36 -331.33,-318.01 -396.74,-384.66 9.17,-61.19 3.46,-2.57 28.68,-52.32 -30.34,-26.14 -84.18,-89.17 -102.46,-121.94l-529.4 259.07c172.93,162.68 600.56,499.4 810.83,678.29l274.21 224.96c22.46,-26.59 217.57,-492.91 260.81,-598.2 33.78,-82.26 24.15,-13.08 53.95,-51.81 9.78,-12.71 273.56,-661.5 283.54,-701.53 -26.7,17.25 -63.47,59.57 -85.8,87.67l-252.84 286.76c-65.71,70.41 -305.57,352.46 -344.78,373.7z"/>
   <path class="fil1" d="M3358.8 2686.51c50.2,-121.1 99.77,-310.66 140.31,-447.06 44.24,-148.82 88.45,-295.51 135.59,-441.53 96.22,-298.05 96.93,-230.79 -1.3,-434.76l-187.5 -392.32 -46.99 108.98c-13.46,35.94 -24.77,69.18 -37.83,104.04l-232.18 637.92c-43.54,116.24 -29.58,97.53 9.81,215.64 25.06,75.13 48.25,144.72 73.3,219.85 30.33,91 110.32,368.45 146.8,429.22z"/>
   <path class="fil1" d="M6300.23 970.85c-17.19,59.45 -66.38,140.52 -95.11,200.37 -31.88,66.39 -62.87,130.62 -95.47,198.34 -31.31,65.06 -87.68,136.12 -65.45,211.41l343.13 1105.54c29.44,-49.05 181.21,-532.57 222.46,-656.21 38.53,-115.46 50.13,-94.53 7.44,-208.51 -54.14,-144.56 -102.7,-286.26 -156.52,-429.85l-160.49 -421.1z"/>
   <path class="fil3 str0" d="M4894.88 4128.46l-3.62 -32.72 0.78 -66.29 1.15 -38.43 48.85 93.24 -47.16 44.21zm-86.12 -42.89l40.77 -96.05 3.51 140.02 -44.28 -43.97zm212.42 -18.35c15.33,-27.81 22.03,-34.6 50.12,-49.7 -15.88,44.6 -4.43,45.18 -50.12,49.7zm-346.36 -49.7c28.09,15.09 34.79,21.89 50.12,49.7 -58.07,-5.73 -25.97,-9.82 -50.12,-49.7zm304.06 29.92c-30.26,-27.21 -56.28,-87.5 -69.2,-130.82l193.04 0c-22.68,41.72 -88.63,97.22 -123.83,130.82zm-335.08 -130.82l192.61 0c-12.9,43.31 -38.91,103.61 -69.17,130.82 -35.2,-33.6 -101.15,-89.1 -123.44,-130.82zm225 -1050.43l261.48 1011.53 -513.08 0.34 251.59 -1011.86zm242.45 160.75l116.98 585.09c-2.02,35.83 -42.03,146.39 -60.09,173.75l-56.89 -758.84zm-534.13 758.78c-17.2,-27.3 -57.2,-137.86 -59.23,-173.69l114.89 -585.25 -55.66 758.94zm321.78 -1018.52l144.02 -68.56 69.94 901.02c-36.95,-46.1 -212.75,-821.8 -213.97,-832.47zm-263.92 832.6l67.38 -898.78 144.25 67.47c-13.32,102.34 -115.08,473.02 -151.65,619.29 -9.15,36.61 -17.08,68.13 -26.48,105.92l-19.15 75.93c-8.64,23.72 10.18,-21.93 -6.41,15.13l-7.95 15.04zm36.64 504.83c65.57,1.24 82.95,-12.31 120.23,25.03 23.26,23.31 42.66,53.75 81.22,70.08 35.25,-14.92 55.42,-42.82 76.73,-65.15 41.61,-43.61 50.22,-28.54 124.72,-29.95 21.93,-44.87 47.52,-99.35 73.96,-150.09 31.63,-60.66 43.33,-101.12 66.23,-169.83 66.36,-199.09 60.14,-154.11 17.19,-368.83 -19.93,-99.68 -134.62,-727.37 -160.22,-765.37 -61.65,3.81 -143.06,83.59 -198.62,83.59 -55.55,0 -136.96,-79.78 -198.61,-83.59 -25.6,37.99 -140.29,665.69 -160.22,765.37 -42.95,214.72 -49.17,169.74 17.19,368.83 21.36,64.06 33.68,108.57 63,163.67 27.39,51.49 54.5,109.81 77.2,156.25z"/>
   <polygon class="fil2" points="4617.21,3878.05 5130.28,3877.71 4868.8,2866.18 "/>
   <path class="fil1" d="M3396.48 2798.93c30.84,91.06 230.54,639.31 260.11,687l426.87 -260.4c-26.16,-50.71 -76.3,-117.93 -110.18,-168.77 -64.33,-96.5 -32.13,-79.52 -154.15,-120.09 -115.35,-38.36 -313.08,-117.82 -422.64,-137.74z"/>
   <path class="fil1" d="M6349.65 2798.93c-109.56,19.92 -307.3,99.37 -422.64,137.74 -124.08,41.25 -91.32,25.84 -157.94,125.77 -32.78,49.18 -81.07,114 -108.23,166.14l428.86 257.07 259.95 -686.73z"/>
   <path class="fil1" d="M3832.69 833.55c24.96,-20.05 281.64,-325.07 293.67,-350.82l-957.82 -403.95c13.89,34.65 49.97,73.77 77.4,101.93l586.75 652.84z"/>
   <path class="fil2" d="M6361.06 2750.94l-332.77 -1069.49c-10.01,225.95 -2.01,474.2 -1.27,702.34 0.63,193.47 -107.24,322.24 -169.38,532.84l503.43 -165.69z"/>
   <path class="fil1" d="M5618.03 478.58c13.77,29.9 270.45,334.92 295.4,354.96l665.36 -751.85 -960.76 396.88z"/>
   <path class="fil2" d="M3388.68 2750.4l500.69 163.57c-63.03,-207.95 -170.9,-336.71 -170.27,-530.18 0.74,-228.13 8.74,-476.38 -4.78,-703.42l-325.64 1070.03z"/>
   <path class="fil2" d="M5320.5 4552.5c35.06,-24.3 372.93,-525 437.31,-604.25 -66.09,9.76 -376.36,132.53 -434.03,191.43l-212.87 212.72c-56.16,54.94 -170.21,362.36 -190.85,436.61l400.44 -236.51z"/>
   <path class="fil2" d="M3988.31 3948.26c26.76,32.93 59.5,84.39 87.13,122.12 56.53,77.18 319.23,462.62 356.03,485.74l394.59 232.9c-26.24,-94.38 -81.92,-212.03 -120.43,-308.42 -53.47,-133.85 -58,-115.36 -179.39,-236.75 -126.16,-126.15 -101.74,-125.4 -243.51,-182.09 -64.35,-25.72 -241.99,-105.76 -294.42,-113.5z"/>
   <path class="fil2" d="M4359.14 4025.25l-249 -757.06c-45.6,15.91 -387.7,223.11 -425.33,253.04l674.33 504.02z"/>
   <path class="fil2" d="M6061.25 3521.29c-36.44,-29.27 -380.41,-237.45 -422.67,-252.24l-250.63 756.33 673.29 -504.09z"/>
   <path class="fil1" d="M4380.65 310.65c28.35,28.62 76.29,44.88 116.85,65.16 62.39,31.2 350.12,181.25 375.56,181.25 27.28,0 209.48,-98.21 249.46,-118.2 49.03,-24.52 215.59,-100.59 242.95,-128.21 -519.21,-103.45 -465.61,-103.45 -984.82,0z"/>
   <path class="fil3 str0" d="M5420.24 2443.62l1.31 95.83c-40.84,-13.32 -87.64,-33.99 -114.94,-59.34l113.64 -36.49zm375 -452.59c23.81,111.48 -28.41,150.53 -74.15,219.13 -79.67,119.5 -78.63,155.44 -148.92,153.39l223.07 -372.53zm-512.76 447.02c12.65,-64.4 30.51,-127.71 46.95,-193.5 32.89,-131.64 15.15,-124.69 85.2,-151.49 105.39,-40.33 245.25,-108.88 348.4,-136.7l-236.94 399.48c-42.32,48.64 -79.73,15.22 -79.77,15.21 -30.9,-5.6 -126.99,54.06 -163.83,67zm-48.09 49.76c33.29,24.11 190.69,105.29 218.44,97.41 14.42,-38.33 6.69,-108.33 6.69,-157.33 85.07,-21.42 81.91,-23.89 182.51,-25.66 31.56,-50.26 68.96,-103.91 104.34,-156.97 86.27,-129.41 108.05,-128.68 88.45,-349.43 -48.68,-6.11 -359.49,132.05 -429.47,159.51 -57.6,22.61 -70.86,12.18 -85.27,65.91 -10.76,40.13 -19.44,81.62 -29.48,121.8 -13.87,55.5 -56.49,197.18 -56.21,244.75z"/>
   <path class="fil3 str0" d="M4324.57 2539.45l1.31 -95.83 113.64 36.49c-27.3,25.34 -74.1,46.01 -114.95,59.34zm-373.69 -548.42l223.07 372.53c-66.48,1.97 -57.54,-15.5 -88.4,-62.58 -82.49,-125.85 -160.34,-189.74 -134.67,-309.95zm32.22 -34.67c103.15,27.83 243,96.37 348.4,136.7 70.05,26.81 52.31,19.85 85.2,151.49 16.44,65.78 34.3,129.09 46.95,193.5 -36.84,-12.94 -132.93,-72.59 -163.83,-67 -58.64,10.61 27.1,15.84 -38.28,9.13 -51.85,-5.33 -140.09,-187.13 -183.94,-260.42 -18.32,-30.62 -29.69,-49.44 -46.14,-76.78 -11.54,-19.18 -37.24,-71.11 -48.35,-86.62zm121 445.87c100.6,1.77 97.43,4.24 182.51,25.66 0,49 -7.73,119 6.69,157.33 27.75,7.88 185.15,-73.31 218.44,-97.41 0.23,-39.75 -66.3,-286.18 -83.96,-358.86 -14.94,-61.5 -18.61,-47.08 -80.2,-70.92 -71.09,-27.51 -386.78,-168.41 -435.22,-162.08 -8.69,47.6 -5.31,116.89 -4.64,166.94 0.9,66.64 21.95,77.33 54.21,125.62 47.87,71.69 98.74,144.55 142.17,213.72z"/>
   <path class="fil1" d="M3983.1 1956.36c11.11,15.51 36.81,67.44 48.35,86.62 16.45,27.35 27.82,46.16 46.14,76.78 43.85,73.29 132.09,255.09 183.94,260.42 65.38,6.72 -20.36,1.48 38.28,-9.13 30.9,-5.6 126.99,54.06 163.83,67 -12.65,-64.4 -30.51,-127.71 -46.95,-193.5 -32.89,-131.64 -15.15,-124.69 -85.2,-151.49 -105.39,-40.33 -245.25,-108.88 -348.4,-136.7z"/>
   <path class="fil1 str1" d="M5282.48 2438.05c36.84,-12.94 132.93,-72.59 163.83,-67 0.04,0 37.45,33.42 79.77,-15.21l236.94 -399.48c-103.15,27.83 -243,96.37 -348.4,136.7 -70.05,26.81 -52.31,19.85 -85.2,151.49 -16.44,65.78 -34.3,129.09 -46.95,193.5z"/>
   <path class="fil1" d="M4898.89 2767.19c1.22,10.66 177.02,786.37 213.97,832.47l-69.94 -901.02 -144.02 68.56z"/>
   <path class="fil1" d="M4642.92 3584.75c16.59,-37.06 -2.23,8.59 6.41,-15.13l19.15 -75.93c9.39,-37.79 17.32,-69.31 26.48,-105.92 36.57,-146.27 138.33,-516.95 151.65,-619.29l-144.25 -67.47 -67.38 898.78 7.95 -15.04z"/>
   <polygon class="fil1" points="4877.06,4776.21 5030.3,4389.79 4715.74,4393.02 "/>
   <path class="fil1" d="M5500.59 3997.93c23.88,-4.43 280.32,-104.02 301.16,-117.96 21.2,-14.18 158.35,-201.65 180.75,-239.18 -63.12,27.85 -415.97,317.74 -481.91,357.14z"/>
   <path class="fil2" d="M5168.14 3785.77c18.06,-27.36 58.07,-137.92 60.09,-173.75l-116.98 -585.09 56.89 758.84z"/>
   <path class="fil2" d="M4632.78 3026.78l-114.89 585.25c2.02,35.83 42.03,146.39 59.23,173.69l55.66 -758.94z"/>
   <path class="fil1" d="M3763.54 3640.87l88.62 123.15c16.43,21.89 70.07,99.18 86.62,112.08 19.35,15.08 261.95,110.08 296.77,113.18l-472 -348.41z"/>
   <path class="fil2" d="M5572.17 2363.56c70.29,2.04 69.25,-33.9 148.92,-153.39 45.74,-68.61 97.96,-107.65 74.15,-219.13l-223.07 372.53z"/>
   <path class="fil2" d="M3950.88 1991.03c-25.67,120.2 52.18,184.09 134.67,309.95 30.86,47.08 21.92,64.55 88.4,62.58l-223.07 -372.53z"/>
   <path class="fil1" d="M4978.88 4047.43c35.21,-33.6 101.15,-89.1 123.83,-130.82l-193.04 0c12.93,43.31 38.94,103.61 69.2,130.82z"/>
   <path class="fil1" d="M4643.8 3916.61c22.29,41.72 88.24,97.22 123.44,130.82 30.26,-27.21 56.28,-87.5 69.17,-130.82l-192.61 0z"/>
   <path class="fil2" d="M5306.61 2480.12c27.3,25.34 74.1,46.01 114.94,59.34l-1.31 -95.83 -113.64 36.49z"/>
   <path class="fil2" d="M4324.57 2539.45c40.85,-13.32 87.65,-33.99 114.95,-59.34l-113.64 -36.49 -1.31 95.83z"/>
   <polygon class="fil2" points="4942.05,4084.25 4893.2,3991.01 4892.05,4029.44 4891.27,4095.73 4894.88,4128.46 "/>
   <polygon class="fil2 str2" points="4853.04,4129.54 4849.53,3989.52 4808.76,4085.56 "/>
   <path class="fil2" d="M5021.18 4067.21c45.69,-4.51 34.25,-5.1 50.12,-49.7 -28.1,15.09 -34.79,21.89 -50.12,49.7z"/>
   <path class="fil2" d="M4674.82 4017.52c24.15,39.88 -7.95,43.96 50.12,49.7 -15.33,-27.81 -22.03,-34.6 -50.12,-49.7z"/>
  </g>
  <g id="_2587297745936">
   <path class="fil4" d="M834.61 5803.88c460.96,0 834.65,379.13 834.65,846.83 0,467.71 -373.68,846.84 -834.65,846.84 -460.93,0 -834.61,-379.13 -834.61,-846.84 0,-467.7 373.68,-846.83 834.61,-846.83zm4.88 258.69c331.57,0 600.35,263.31 600.35,588.14 0,324.83 -268.78,588.14 -600.35,588.14 -331.56,0 -600.35,-263.31 -600.35,-588.14 0,-324.83 268.78,-588.14 600.35,-588.14z"/>
   <rect class="fil4" x="3177.43" y="5823.4" width="258.69" height="1649.73"/>
   <path class="fil4" d="M2142.69 5852.68c145.17,0 290.85,0 435.61,0 225.76,0 408.76,222.36 408.76,496.63 0,268.99 -176.01,488.02 -395.77,496.35l386.04 598.19 -322.13 0 -510.28 -790.71 110.07 0 153.71 -2.44c183.27,-2.9 331.89,-127.28 331.89,-284.31 0,-157.02 -148.69,-289.34 -331.89,-284.31l-177.51 4.88 -88.48 0 0 1371.52 -248.92 0 0 -1605.82 248.92 0z"/>
   <rect class="fil4" x="7871.37" y="5837.58" width="253.81" height="1620.46"/>
   <polygon class="fil4" points="6250.92,5836.63 5889.74,5832.71 5889.74,7453.17 6143.54,7453.17 6143.54,6106.31 6664.33,7476.62 6874.2,7476.62 7358.9,6201.29 7358.9,7462.91 7612.7,7462.91 7612.7,5842.46 7287.61,5836.63 6769.27,7200.51 "/>
   <path class="fil4" d="M8378.98 7458.02l253.81 0 440.01 0 0 -0.07 4.88 0.07c369.3,0 668.68,-362.76 668.68,-810.24 0,-444.49 -295.44,-805.33 -661.36,-810.1l0 -0.12 -7.32 0 -444.89 0 -253.81 0 0 247.74 0 1125.05 0 247.66zm253.81 -1361.38c72.83,-30.84 153.1,-47.93 237.46,-47.93 331.56,0 600.35,263.87 600.35,589.35 0,325.5 -268.78,589.37 -600.35,589.37 -84.35,0 -164.62,-17.09 -237.46,-47.93l0 -1082.86z"/>
   <path class="fil5" d="M4546.67 5812.6c226.22,0 432.24,83.53 586.93,220.41l-144.76 196.01 148.58 -192.57 -3.82 -3.44 -144.76 196.01c-113.01,-103.56 -268.14,-167.5 -439.34,-167.5 -345.7,0 -625.97,260.6 -625.97,582.05 0,321.46 280.27,582.05 625.97,582.05 247.33,0 461.14,-133.39 562.81,-327.02l-803.18 0 0 -229.41 865.71 0 241.24 0 0.21 0 -37.63 229.41c-108.57,344.68 -439.99,595.46 -831.99,595.46 -480.27,0 -869.62,-376.41 -869.62,-840.74 0,-464.31 389.35,-840.72 869.62,-840.72z"/>
   <polygon class="fil4" points="5416.29,5842.47 5654.38,5842.47 5670.1,5842.47 5670.1,7462.93 5416.29,7462.93 5416.29,6196.73 4546.67,7494.06 4283.93,7453.16 5366.41,5842.47 "/>
  </g>
 </g>
</svg>
